<svg xmlns="http://www.w3.org/2000/svg" viewBox="0 0 687.65 604.38"><defs><style>.cls-1{fill:none;stroke:#000;stroke-linecap:round;stroke-miterlimit:10;stroke-width:15px;stroke-dasharray:20 25;}</style></defs><title>outline cactus </title><g id="Layer_2" data-name="Layer 2"><g id="Layer_1-2" data-name="Layer 1"><path class="cls-1" d="M663.23,375.48l.34-.43c.76-1,1.49-2,2.2-3l.51-.75q.86-1.26,1.66-2.55l.42-.67q1-1.56,1.83-3.14l.35-.64q.72-1.33,1.38-2.67l.39-.78c.52-1.08,1-2.17,1.48-3.26l.15-.36q.63-1.49,1.18-3l.3-.81q1.21-3.36,2.11-6.78l.19-.76q.39-1.54.72-3.1l.08-.36c.24-1.17.45-2.33.63-3.5,0-.2.06-.41.09-.61q.23-1.55.41-3.1c0-.17,0-.34.06-.51q.19-1.79.29-3.58c0-.11,0-.21,0-.32q.09-1.65.11-3.3c0-.18,0-.35,0-.53q0-3.61-.26-7.2l0-.45q-.31-3.63-.94-7.22l-.05-.29q-.66-3.66-1.63-7.25v0a83.34,83.34,0,0,0-3.75-10.75h0a80.47,80.47,0,0,0-60.82-48.11h0a85.26,85.26,0,0,0-55.58,9.16l.25-1.7C576.08,123.56,475.63,7.5,344.76,7.5h0c-79.14,0-147.14,42.45-184.39,104.64l0,0q-1.09,1.81-2.13,3.65l-.33.57q-1,1.8-2,3.63l-.2.38q-4.15,7.68-7.68,15.71l-.39.9q-.75,1.74-1.48,3.49l-.43,1.06c-.48,1.18-1,2.36-1.41,3.55l-.21.57q-2.2,5.73-4.06,11.61c-.16.49-.31,1-.47,1.46q-.49,1.58-1,3.16-.26.89-.52,1.79-.44,1.54-.85,3.08c-.17.63-.33,1.26-.49,1.89-.26,1-.53,2.05-.78,3.08-.11.46-.21.93-.32,1.39q-.69,2.94-1.3,5.92c-.16.78-.32,1.56-.48,2.35s-.34,1.8-.5,2.71-.3,1.68-.44,2.52-.29,1.75-.42,2.63-.27,1.81-.4,2.71-.24,1.66-.35,2.5c-.15,1.12-.27,2.25-.4,3.38-.1.86-.19,1.71-.28,2.57q-.22,2.17-.4,4.36c-.06.71-.1,1.43-.15,2.14-.08,1.09-.15,2.18-.21,3.27,0,.75-.08,1.5-.11,2.25q-.07,1.64-.12,3.29c0,.72,0,1.43-.05,2.15,0,1.26,0,2.52,0,3.78,0,.55,0,1.11,0,1.66q0,2.69.1,5.39c0,.46,0,.93.06,1.4.05,1.38.11,2.75.19,4.13,0,.65.08,1.31.13,2q.12,1.83.27,3.66.08,1,.18,2c.12,1.27.25,2.55.39,3.82.07.59.13,1.18.2,1.77.22,1.86.46,3.71.73,5.57L133.79,264a87.41,87.41,0,0,0-75.37-3h0c-33.6,14.41-51.08,46.09-50.9,77.87a84.82,84.82,0,0,0,2.91,21.6q1.07,4,2.54,7.85,1,2.58,2.14,5.11a83,83,0,0,0,30.12,34.82c34.41,22.68,74.63,43.61,117.44,54.91L182,596.88H507.46l12.4-85.52h0l5.28-36.4c52.21-18.8,97.38-55.74,132.77-93.25.9-1,1.75-1.92,2.59-2.89l.65-.76Q662.22,376.78,663.23,375.48Z"/></g></g></svg>