<?xml version="1.0" encoding="utf-8"?>
<!-- Generator: Adobe Illustrator 21.1.0, SVG Export Plug-In . SVG Version: 6.00 Build 0)  -->
<svg version="1.1" xmlns="http://www.w3.org/2000/svg" xmlns:xlink="http://www.w3.org/1999/xlink" x="0px" y="0px"
	 viewBox="0 0 500 500" style="enable-background:new 0 0 500 500;" xml:space="preserve">
<style type="text/css">
	.st0{fill:#C9FFDE;}
	.st1{fill:#FFF2C4;}
	.st2{fill:none;stroke:#21374A;stroke-width:1.7962;stroke-linecap:round;stroke-linejoin:round;stroke-miterlimit:10;}
	.st3{fill:#FFDE99;stroke:#21374A;stroke-width:1.7962;stroke-linecap:round;stroke-linejoin:round;stroke-miterlimit:10;}
	.st4{opacity:0.25;fill:#21374A;}
	.st5{fill:#FFFFFF;}
	.st6{fill:#21374A;stroke:#21374A;stroke-width:1.7962;stroke-linecap:round;stroke-linejoin:round;stroke-miterlimit:10;}
	.st7{fill:#95596B;stroke:#21374A;stroke-width:1.7962;stroke-linecap:round;stroke-linejoin:round;stroke-miterlimit:10;}
	.st8{fill:#FF89B1;}
	.st9{fill:none;stroke:#FFB6DE;stroke-width:1.7962;stroke-linecap:round;stroke-linejoin:round;stroke-miterlimit:10;}
	.st10{fill:#B1FFFF;stroke:#21374A;stroke-width:1.7962;stroke-linecap:round;stroke-linejoin:round;stroke-miterlimit:10;}
	.st11{opacity:0.15;fill:#21374A;}
	.st12{fill:#FFFFFF;stroke:#21374A;stroke-width:1.7962;stroke-linecap:round;stroke-linejoin:round;stroke-miterlimit:10;}
	.st13{fill:#FF8A7E;stroke:#21374A;stroke-width:1.7962;stroke-linecap:round;stroke-linejoin:round;stroke-miterlimit:10;}
	.st14{fill:#FFB9DD;}
	.st15{fill:#FF8A7E;}
	.st16{fill:#FFB6DE;}
	.st17{fill:#6CFFD1;stroke:#21374A;stroke-width:1.7962;stroke-linecap:round;stroke-linejoin:round;stroke-miterlimit:10;}
	.st18{fill:#6CFFD1;stroke:#48E0B4;stroke-width:1.7962;stroke-linecap:round;stroke-linejoin:round;stroke-miterlimit:10;}
	.st19{fill:none;stroke:#48E0B4;stroke-width:1.7962;stroke-linecap:round;stroke-linejoin:round;stroke-miterlimit:10;}
	.st20{fill:#FF855C;stroke:#21374A;stroke-width:1.7962;stroke-linecap:round;stroke-linejoin:round;stroke-miterlimit:10;}
	
		.st21{opacity:0.2;fill:#21374A;stroke:#21374A;stroke-width:1.7962;stroke-linecap:round;stroke-linejoin:round;stroke-miterlimit:10;}
	.st22{fill:#6EB7FF;stroke:#21374A;stroke-width:1.7962;stroke-linecap:round;stroke-linejoin:round;stroke-miterlimit:10;}
	
		.st23{clip-path:url(#SVGID_2_);fill:none;stroke:#6EFFFF;stroke-width:1.7962;stroke-linecap:round;stroke-linejoin:round;stroke-miterlimit:10;}
	
		.st24{clip-path:url(#SVGID_2_);fill:none;stroke:#FFFFFF;stroke-width:1.7962;stroke-linecap:round;stroke-linejoin:round;stroke-miterlimit:10;}
	.st25{opacity:0.47;fill:#21374A;}
	
		.st26{opacity:0.81;fill:#FFFFFF;stroke:#21374A;stroke-width:1.7962;stroke-linecap:round;stroke-linejoin:round;stroke-miterlimit:10;}
	
		.st27{opacity:0.72;fill:#AEFFFF;stroke:#21374A;stroke-width:1.7962;stroke-linecap:round;stroke-linejoin:round;stroke-miterlimit:10;}
	.st28{fill:#AEFFFF;}
	.st29{fill:#AEFFFF;stroke:#63DBF2;stroke-width:1.7962;stroke-linecap:round;stroke-linejoin:round;stroke-miterlimit:10;}
	.st30{opacity:0.25;fill:#2F6078;}
	
		.st31{opacity:0.7;fill:#D8FFFF;stroke:#21374A;stroke-width:1.7962;stroke-linecap:round;stroke-linejoin:round;stroke-miterlimit:10;}
	.st32{opacity:0.45;fill:#FFFFFF;}
	
		.st33{opacity:0.68;fill:none;stroke:#FFFFFF;stroke-width:5.9874;stroke-linecap:round;stroke-linejoin:round;stroke-miterlimit:10;}
	.st34{fill:#9F92F2;stroke:#21374A;stroke-width:1.7962;stroke-linecap:round;stroke-linejoin:round;stroke-miterlimit:10;}
	.st35{fill:#4DADE2;stroke:#21374A;stroke-width:1.7962;stroke-linecap:round;stroke-linejoin:round;stroke-miterlimit:10;}
	.st36{fill:#63DBF2;}
	.st37{fill:#63DBF2;stroke:#21374A;stroke-width:1.7962;stroke-linecap:round;stroke-linejoin:round;stroke-miterlimit:10;}
</style>
<g id="BACKGROUND">
	<rect x="0" y="0" class="st0" width="500" height="500"/>
	<rect x="0" y="317.7" class="st1" width="500" height="182.3"/>
</g>
<g id="OBJECTS">
	<g>
		<path class="st2" d="M124.9,201.8c0,0,15.9,4.7,15.9,21.9c0,17-12.4,29.7-5.7,51.3c7.1,22.7,30.3,20.8,33.1,42.8
			c2.8,22-23.3,40.5-21.3,56.2"/>
		<path class="st3" d="M122.2,202.6c0,0-1.7,5.2-0.7,5.6c1,0.4,8.8-0.1,8.8-1.8c0.1-1.6-2.7-5.2-2.7-5.2S124.6,199,122.2,202.6z"/>
		<path class="st4" d="M122.2,202.6c0,0-1.7,5.2-0.7,5.6c1,0.4,8.8-0.1,8.8-1.8c0.1-1.6-2.7-5.2-2.7-5.2S124.6,199,122.2,202.6z"/>
		<path class="st3" d="M148.1,203.9l-23.2-2.1l-19.8,12.3c-5.9,3.7-13.6,0.4-15.1-6.3l-5.2-22.8l-17.8-15
			c-5.3-4.5-4.6-12.8,1.3-16.3l20-12l8.8-21.6c2.6-6.4,10.7-8.3,15.9-3.8l17.6,15.4l23.3,1.7c6.9,0.5,11.2,7.6,8.5,14l-9.2,21.5
			l5.6,22.7C160.5,198.2,155,204.5,148.1,203.9z"/>
		<g>
			<path class="st5" d="M145.8,139.8l-12.9-0.6c-1.2-0.1-2.1-1.1-2-2.2l0,0c0.1-1.2,1.1-2.1,2.2-2l12.9,0.6c1.2,0.1,2.1,1.1,2,2.2
				l0,0C148,139,147,139.9,145.8,139.8z"/>
			
				<ellipse transform="matrix(0.7061 -0.7081 0.7081 0.7061 -53.3913 147.985)" class="st5" cx="151.6" cy="138.3" rx="2.2" ry="2.2"/>
		</g>
		<g>
			<path class="st5" d="M151.1,188l-3.3-12.5c-0.3-1.1,0.4-2.3,1.5-2.6l0,0c1.1-0.3,2.3,0.4,2.6,1.5l3.3,12.5
				c0.3,1.1-0.4,2.3-1.5,2.6l0,0C152.6,189.8,151.4,189.1,151.1,188z"/>
		</g>
		<g>
			<g>
				<g>
					
						<ellipse transform="matrix(0.9721 -0.2348 0.2348 0.9721 -37.2331 27.4034)" class="st6" cx="96.5" cy="170.1" rx="9.4" ry="9.4"/>
					<path class="st5" d="M94.6,161.9c-0.8,1.3-1.2,3-0.8,4.6c0.8,3.2,4,5.2,7.2,4.4c1.6-0.4,2.8-1.3,3.6-2.6c0-0.1,0-0.1,0-0.2
						C103.6,163.6,99.1,160.9,94.6,161.9z"/>
					
						<ellipse transform="matrix(0.5213 -0.8533 0.8533 0.5213 -101.7316 161.9931)" class="st5" cx="93.5" cy="171.7" rx="2" ry="2"/>
					
						<ellipse transform="matrix(0.5214 -0.8533 0.8533 0.5214 -101.5074 166.9377)" class="st5" cx="98.1" cy="174" rx="1.3" ry="1.3"/>
				</g>
				<g>
					
						<ellipse transform="matrix(0.9721 -0.2348 0.2348 0.9721 -33.9084 36.3621)" class="st6" cx="135.8" cy="160.6" rx="9.4" ry="9.4"/>
					<path class="st5" d="M133.9,152.4c-0.8,1.3-1.2,3-0.8,4.6c0.8,3.2,4,5.2,7.2,4.4c1.6-0.4,2.8-1.3,3.6-2.6c0-0.1,0-0.1,0-0.2
						C142.9,154.2,138.4,151.4,133.9,152.4z"/>
					
						<ellipse transform="matrix(0.5213 -0.8533 0.8533 0.5213 -74.8297 190.9776)" class="st5" cx="132.8" cy="162.2" rx="2" ry="2"/>
					
						<ellipse transform="matrix(0.5213 -0.8533 0.8533 0.5213 -74.6056 195.9285)" class="st5" cx="137.3" cy="164.5" rx="1.3" ry="1.3"/>
				</g>
			</g>
			<line class="st2" x1="86.2" y1="163.3" x2="90" y2="156.2"/>
			<line class="st2" x1="131.7" y1="145.5" x2="140.4" y2="148.8"/>
			<ellipse transform="matrix(0.9922 -0.125 0.125 0.9922 -20.2086 15.8902)" class="st7" cx="116.5" cy="169" rx="4.9" ry="4.9"/>
			<path class="st8" d="M113.2,172.5c1,1,2.4,1.5,4,1.3c2-0.3,3.6-1.7,4.1-3.6c-1-1-2.4-1.5-4-1.3
				C115.3,169.2,113.7,170.7,113.2,172.5z"/>
			<ellipse transform="matrix(0.9922 -0.125 0.125 0.9922 -20.2086 15.8902)" class="st2" cx="116.5" cy="169" rx="4.9" ry="4.9"/>
			<g>
				<line class="st9" x1="94.9" y1="183.9" x2="93.8" y2="187"/>
				<line class="st9" x1="98.1" y1="183.3" x2="97" y2="186.3"/>
				<line class="st9" x1="101.4" y1="182.6" x2="100.2" y2="185.7"/>
				<line class="st9" x1="104.6" y1="182" x2="103.4" y2="185"/>
			</g>
			<g>
				<line class="st9" x1="134.9" y1="174" x2="133.8" y2="177.1"/>
				<line class="st9" x1="138.1" y1="173.4" x2="137" y2="176.4"/>
				<line class="st9" x1="141.3" y1="172.7" x2="140.2" y2="175.8"/>
				<line class="st9" x1="144.5" y1="172.1" x2="143.4" y2="175.1"/>
			</g>
			<g>
				<path class="st10" d="M154.1,141.7c0.4,3.3-2,6.4-5.3,6.8c-3.4,0.4-6.4-2-6.8-5.3c-0.4-3.4,4.6-12.7,4.6-12.7
					S153.6,138.4,154.1,141.7z"/>
				
					<ellipse transform="matrix(0.9922 -0.125 0.125 0.9922 -16.5296 19.7764)" class="st5" cx="149.3" cy="141.6" rx="2.5" ry="3.4"/>
			</g>
		</g>
		<g>
			<path class="st5" d="M117.9,131.5l-9.8-8.4c-0.9-0.8-1-2.1-0.2-3l0,0c0.8-0.9,2.1-1,3-0.2l9.8,8.4c0.9,0.8,1,2.1,0.2,3l0,0
				C120.1,132.2,118.8,132.3,117.9,131.5z"/>
			<ellipse transform="matrix(0.9922 -0.125 0.125 0.9922 -15.766 16.4717)" class="st5" cx="123.4" cy="133.9" rx="2.2" ry="2.2"/>
		</g>
		<path class="st4" d="M158.8,191.5c-2.6,14.1-36,0.8-36,0.8s-7.9,8.3-17.3,7.7c-9.3-0.6-8.1-24.8-8.1-24.8s-18.1-3.6-19.8-12.1
			s16.9-17.5,16.9-17.5c-2-6.9-0.3-18.3-0.3-18.3l-5.9,14.6l-20,12c-5.9,3.5-6.6,11.9-1.3,16.3l17.8,15l5.2,22.8
			c1.5,6.7,9.3,10,15.1,6.3l19.8-12.3l23.2,2.1C155,204.5,160.5,198.2,158.8,191.5z"/>
	</g>
	<g>
		<ellipse class="st11" cx="239.9" cy="375.9" rx="111.5" ry="17.1"/>
		<g>
			<g>
				<g>
					<path class="st12" d="M196.2,205.9c0,0-11.6-10.3-24.3-9.9c0,0-7.8,16,0.8,34.6C172.7,230.6,195.5,223.2,196.2,205.9z"/>
					<path class="st8" d="M177.5,222.1c0,0-2.8-7.8,0-16.4c0,0,8.6-1.8,14,4.2C191.5,209.9,186.7,220.5,177.5,222.1z"/>
					<path class="st11" d="M168.6,211.1c0,0,14.1,4.2,21.1-8.3l6.5,3.1l-13.8,21.1l-8,3C174.4,229.9,166.6,222.7,168.6,211.1z"/>
					<path class="st13" d="M283.4,205.9c0,0,11.6-10.3,24.3-9.9c0,0,7.8,16-0.8,34.6C306.9,230.6,284,223.2,283.4,205.9z"/>
					<path class="st14" d="M303.5,222.1c0,0,2.8-7.8,0-16.4c0,0-8.6-1.8-14,4.2C289.5,209.9,294.3,220.5,303.5,222.1z"/>
					<path class="st11" d="M310.8,211.1c0,0-14.1,4.2-21.1-8.3l-6.5,3.1l13.8,21.1l8,3C305,229.9,312.8,222.7,310.8,211.1z"/>
				</g>
				<g>
					<path class="st12" d="M175.8,304.3c-1.6-0.7-27.2,10.8-27.2,28.4c0,17.6,6.8,29.7,6.8,29.7s-8.3,1-13.2,6
						c-3,3.1-0.6,8.4,3.8,8.4h38.3L175.8,304.3z"/>
					<path class="st15" d="M169.9,330.7l4.5-26.2c-5.7,1.8-25.8,12.6-25.8,28.1c0,6.9,1.1,13,2.3,17.8c0.5,0,1,0,1.5-0.1
						C166.8,348.7,169.9,330.7,169.9,330.7z"/>
					<path class="st4" d="M182.9,364.4l-7.1-60.1c-0.9-0.4-8.8,2.8-15.8,8.6l0,0c12.3,25.3-5.7,47-5.8,47c0.7,1.6,1.2,2.4,1.2,2.4
						s-8.3,1-13.2,6c-3,3.1-0.6,8.4,3.8,8.4H181C181.5,373.8,182.2,369.1,182.9,364.4z"/>
					<path class="st2" d="M175.8,304.3c-1.6-0.7-27.2,10.8-27.2,28.4c0,17.6,6.8,29.7,6.8,29.7s-8.3,1-13.2,6
						c-3,3.1-0.6,8.4,3.8,8.4h38.3L175.8,304.3z"/>
					<path class="st2" d="M156.4,364.2c-2.2,0.9-4.6,2.2-6.4,4.2c-3,3.1-0.6,8.4,3.8,8.4"/>
					<path class="st2" d="M164.1,364.2c-2.2,0.9-4.6,2.2-6.4,4.2c-3,3.1-0.6,8.4,3.8,8.4"/>
				</g>
				<path class="st12" d="M301.6,326.2c0,0,3.2-28.9,29.9-32.5c23.9-3.2,30.8-39.5,13-54.5c-3.9-3.3-4.6-8.9-2.1-13.3l0,0
					c3.5-5.9,11.7-7,16.5-2.2c9.9,9.9,22.7,28.1,17.7,53.3c-7.8,39.4-54.9,22.6-60.4,49.1L301.6,326.2z"/>
				<g>
					<path class="st15" d="M353.9,256L353.9,256c2.1,11.2-1.2,23.8-9.1,31.3c7.9,2.7,20.8-1.5,21.3-13.8
						C366.6,260.3,353.9,256,353.9,256z"/>
					<path class="st15" d="M318.8,319.8c6.2-9.6,20.9-10.8,34.1-15.8c-19.8,3.2-21.4-10.3-21.4-10.3c-10.3,1.4-17.1,6.6-21.6,12.4
						L318.8,319.8z"/>
					<path class="st4" d="M362.2,227.2c4.2,7.3,7.9,16.8,9.4,28.8c4.5,35.8-17.5,44.1-34.5,45.9c-17.1,1.9-16.7-4.8-16.7-4.8
						c-16.5,8.7-18.8,29-18.8,29l14.6,0c5.5-26.5,52.6-9.7,60.4-49.1C381.1,254.6,371.4,237.6,362.2,227.2z"/>
				</g>
				<path class="st2" d="M301.6,326.2c0,0,3.2-28.9,29.9-32.5c23.9-3.2,30.8-39.5,13-54.5c-3.9-3.3-4.6-8.9-2.1-13.3l0,0
					c3.5-5.9,11.7-7,16.5-2.2c9.9,9.9,22.7,28.1,17.7,53.3c-7.8,39.4-54.9,22.6-60.4,49.1L301.6,326.2z"/>
				<g>
					<path class="st12" d="M305.7,304.3c1.6-0.7,27.2,10.8,27.2,28.4c0,17.6-6.8,29.7-6.8,29.7s8.3,1,13.2,6c3,3.1,0.6,8.4-3.8,8.4
						h-38.3L305.7,304.3z"/>
					<path class="st4" d="M306.1,315.9l-0.9,60.9h30.2c4.4,0,6.9-5.3,3.8-8.4c-4.9-5-13.2-6-13.2-6s1.1-1.9,2.3-5.2
						c-1.9-0.6-3.9-1.4-5.7-2.6c-12.7-7.9-5.3-43.6-5.3-43.6c-0.6-0.9-1.3-1.6-1.9-2.3c-1.9-1.2-3.8-2.2-5.3-2.9
						c-1.4-0.5-2.9-0.8-4.4-1.5l-0.9,7.3C305.5,313.9,306.1,315.9,306.1,315.9z"/>
					<path class="st2" d="M325.2,364.2c2.2,0.9,4.6,2.2,6.4,4.2c3,3.1,0.6,8.4-3.8,8.4"/>
					<path class="st2" d="M317.4,364.2c2.2,0.9,4.6,2.2,6.4,4.2c3,3.1,0.6,8.4-3.8,8.4"/>
				</g>
				<path class="st12" d="M303,377.3H177.8c-5.5,0-9.9-4.4-9.9-9.9V254.6c0-40,32.5-58.6,72.5-58.6h0c40,0,72.5,18.6,72.5,58.6
					v112.8C312.9,372.9,308.4,377.3,303,377.3z"/>
				<path class="st15" d="M287.9,311.4c0,21.2,0,50.8,0,65.9h15c5.5,0,9.9-4.4,9.9-9.9v-98.9C312.9,268.5,287.9,281.8,287.9,311.4z"
					/>
				<path class="st15" d="M220.7,265.1c14-37.8-7.5-65.6-7.6-65.7c-26.5,6.9-45.1,24.9-45.1,55.3v52.9
					C167.9,307.5,206.6,303,220.7,265.1z"/>
				<path class="st2" d="M303,377.3H177.8c-5.5,0-9.9-4.4-9.9-9.9V254.6c0-40,32.5-58.6,72.5-58.6h0c40,0,72.5,18.6,72.5,58.6v112.8
					C312.9,372.9,308.4,377.3,303,377.3z"/>
				<path class="st16" d="M199,377.3h82.9c-2.2-20.9-19.9-37.2-41.4-37.2C218.9,340.1,201.2,356.4,199,377.3z"/>
				<path class="st2" d="M303,377.3H177.8c-5.5,0-9.9-4.4-9.9-9.9V254.6c0-40,32.5-58.6,72.5-58.6h0c40,0,72.5,18.6,72.5,58.6v112.8
					C312.9,372.9,308.4,377.3,303,377.3z"/>
				<path class="st5" d="M180,263.6"/>
				<g>
					<g>
						<g>
							<g>
								<path class="st6" d="M184.8,260.5c4.1-1.6,8.7-2.5,13.6-2.5c4.9,0,9.6,0.9,13.6,2.5c3.9-3.7,6.4-8.9,6.4-14.7
									c0-11.1-9-20.1-20.1-20.1c-11.1,0-20.1,9-20.1,20.1C178.3,251.6,180.8,256.9,184.8,260.5z"/>
								<path class="st5" d="M198.7,227.9c-2.4,2.3-3.9,5.6-3.9,9.2c0,7.1,5.7,12.8,12.8,12.8c3.4,0,6.5-1.4,8.8-3.6
									c0-0.2,0-0.3,0-0.5C216.4,236,208.5,228,198.7,227.9z"/>
								
									<ellipse transform="matrix(0.7071 -0.7071 0.7071 0.7071 -119.0339 207.9349)" class="st5" cx="191.5" cy="247.7" rx="4.2" ry="4.2"/>
								
									<ellipse transform="matrix(0.7071 -0.7071 0.7071 0.7071 -120.7367 214.9015)" class="st5" cx="199" cy="253.2" rx="2.9" ry="2.9"/>
							</g>
						</g>
						<ellipse class="st16" cx="197.5" cy="268.5" rx="7.8" ry="4.9"/>
						<ellipse class="st16" cx="284.8" cy="276.5" rx="7.8" ry="4.9"/>
					</g>
					<g>
						<path class="st2" d="M241.9,246.6c0,4.1-3.4,7.5-7.5,7.5s-7.5-3.4-7.5-7.5"/>
						<path class="st2" d="M256.9,246.6c0,4.1-3.4,7.5-7.5,7.5s-7.5-3.4-7.5-7.5"/>
						<path class="st6" d="M246.4,243.9c0,1-2,2.7-4.5,2.7c-2.5,0-4.5-1.7-4.5-2.7c0-1,2-0.9,4.5-0.9
							C244.4,243,246.4,242.9,246.4,243.9z"/>
						<ellipse class="st5" cx="241.9" cy="243.6" rx="2.7" ry="0.9"/>
					</g>
					<g>
						<path class="st6" d="M271.1,260.5c4.1-1.6,8.7-2.5,13.6-2.5c4.9,0,9.6,0.9,13.6,2.5c3.9-3.7,6.4-8.9,6.4-14.7
							c0-11.1-9-20.1-20.1-20.1c-11.1,0-20.1,9-20.1,20.1C264.7,251.6,267.2,256.9,271.1,260.5z"/>
						<path class="st5" d="M285,227.9c-2.4,2.3-3.9,5.6-3.9,9.2c0,7.1,5.7,12.8,12.8,12.8c3.4,0,6.5-1.4,8.8-3.6c0-0.2,0-0.3,0-0.5
							C302.7,236,294.8,228,285,227.9z"/>
						
							<ellipse transform="matrix(0.7071 -0.7071 0.7071 0.7071 -93.7448 268.9893)" class="st5" cx="277.8" cy="247.7" rx="4.2" ry="4.2"/>
						
							<ellipse transform="matrix(0.7071 -0.7071 0.7071 0.7071 -95.447 275.9562)" class="st5" cx="285.4" cy="253.2" rx="2.9" ry="2.9"/>
					</g>
					<path class="st7" d="M234.4,254.1c0,0,2.2,23.4,7,23.4c5,0,8-23.4,8-23.4s-5.9-0.2-7-4.9C242.4,249.2,238.9,254.1,234.4,254.1z
						"/>
				</g>
				<path class="st12" d="M167.9,358.9v20.8c0,2.1,1.7,3.8,3.8,3.8l0,0c2.7,0,4.9-2.2,4.9-4.9v-0.6v1.7c0,2.1,1.7,3.8,3.8,3.8h0.9
					c2.1,0,3.8-1.7,3.8-3.8v-1.7v1.7c0,2.1,1.7,3.8,3.8,3.8l0,0c2.1,0,3.8-1.7,3.8-3.8v-20.8"/>
				<path class="st13" d="M287.9,358.9v20.8c0,2.1,1.7,3.8,3.8,3.8l0,0c2.7,0,4.9-2.2,4.9-4.9v-0.6v1.7c0,2.1,1.7,3.8,3.8,3.8h0.9
					c2.1,0,3.8-1.7,3.8-3.8v-1.7v1.7c0,2.1,1.7,3.8,3.8,3.8l0,0c2.1,0,3.8-1.7,3.8-3.8v-20.8"/>
				<path class="st12" d="M228,197.6c0,0,5.4-7.2,15-8.3l0,4.1c0,0,7.3-4.7,17.1-4.1c0,0,1.9,8.7-8.2,13.5"/>
				<path class="st8" d="M242.4,267.1c-1.8-3.4-6.2-1.1-6.3-1.1c1.1,5.8,2.9,11.5,5.2,11.5c2.6,0,4.6-6.2,6-12.2
					C243.1,264.3,242.4,267.1,242.4,267.1z"/>
				<path class="st2" d="M234.4,254.1c0,0,2.2,23.4,7,23.4c5,0,8-23.4,8-23.4s-5.9-0.2-7-4.9C242.4,249.2,238.9,254.1,234.4,254.1z"
					/>
			</g>
			<g>
				<line class="st12" x1="176.2" y1="263.6" x2="160.3" y2="259.3"/>
				<line class="st2" x1="176.2" y1="268.5" x2="156.4" y2="268.5"/>
				<line class="st2" x1="176.2" y1="273.4" x2="160.3" y2="276.9"/>
			</g>
			<g>
				<line class="st12" x1="306.1" y1="263.6" x2="322.1" y2="259.3"/>
				<line class="st2" x1="306.1" y1="268.5" x2="326" y2="268.5"/>
				<line class="st2" x1="306.1" y1="273.4" x2="322.1" y2="276.9"/>
			</g>
			<path class="st4" d="M174.4,312.5c0-10,0-11.9,0-52.9c0-40.6,27.7-56.5,28.2-56.8c-20.8,8.6-34.7,25.6-34.7,51.8v104.3v8.5v12.3
				c0,2.1,1.7,3.8,3.8,3.8c2.7,0,4.9-2.2,4.9-4.9v1.1c0,2.1,1.7,3.8,3.8,3.8h0.9c2.1,0,3.8-1.7,3.8-3.8c0,2.1,1.7,3.8,3.8,3.8
				c2.1,0,3.8-1.7,3.8-3.8v-2.4v-11.2C170.1,366.7,174.4,322.5,174.4,312.5z"/>
			<path class="st4" d="M192.9,361.1c0,0,35.4,18.5,95,7.7v8.5h-95V361.1z"/>
			<path class="st4" d="M291.7,383.6c2.7,0,4.9-2.2,4.9-4.9v1.1c0,2.1,1.7,3.8,3.8,3.8h0.9c2.1,0,3.8-1.7,3.8-3.8
				c0,2.1,1.7,3.8,3.8,3.8c2.1,0,3.8-1.7,3.8-3.8v-7.1c-0.6,0.1-1.2,0.3-1.8,0.4c-20.5,4.7-23.2-11.9-23.2-11.9v18.6
				C287.9,381.8,289.6,383.6,291.7,383.6z"/>
		</g>
	</g>
	<g>
		<path class="st17" d="M148.5,312.6c0,0,4.1-6.9,0.5-13.7c-1.7-3.3-0.6-7.3,2.4-9.5l0,0c4.8-3.5,11.6-0.3,11.9,5.6
			c0.4,7.5-0.9,16.4-7.7,21.8C154.1,317.9,149,316.2,148.5,312.6"/>
		<path class="st11" d="M163.2,295c-0.3-5-5-8-9.4-6.8c0.3,0.1,6.7,1.6,5.2,6.2c-1.6,4.7-10.1,4.5-10.1,4.5c1.1,2,1.4,4.1,1.4,6
			c2.8,3,8.5,3.8,10.9,4C163.1,304.4,163.5,299.4,163.2,295z"/>
		<path class="st17" d="M122.5,328.5c0,0,16-3.8,21-18.7c2.4-7.2,10-11.3,17.4-10h0c12,2.1,16.8,16.7,8.5,25.5
			c-10.5,11.1-25.5,21.9-43.1,19.6C122.6,344.4,117.8,334.3,122.5,328.5"/>
		<g>
			<path class="st18" d="M126.7,332.8c0,0,17.2-5.2,22.3-15.6c2.5-5,5.9-9.3,12.3-11.5l0,0c10.2-3.5,12.1,1.6,6,11.1
				c-6.9,10.7-23.7,23.1-39.7,23.1c-3.4,0-5.2,2.3-0.9-2.9"/>
			<line class="st19" x1="143.3" y1="328.3" x2="145.1" y2="328.9"/>
			<line class="st19" x1="149.9" y1="322.4" x2="149.7" y2="323.8"/>
			<line class="st19" x1="153.9" y1="317.9" x2="154.8" y2="317.9"/>
			<line class="st19" x1="161.5" y1="310.9" x2="161.5" y2="312.3"/>
			<line class="st19" x1="160.3" y1="316.9" x2="161.5" y2="316.9"/>
			<line class="st19" x1="156.9" y1="321.6" x2="156.9" y2="322.5"/>
			<line class="st19" x1="153.4" y1="326.4" x2="153.9" y2="326.5"/>
			<line class="st19" x1="136" y1="333.2" x2="136.9" y2="334.1"/>
			<line class="st19" x1="137.6" y1="322" x2="138.7" y2="322.4"/>
			<line class="st19" x1="144.2" y1="315.1" x2="143.7" y2="317.9"/>
			<line class="st19" x1="149" y1="308.8" x2="149.9" y2="308.9"/>
			<line class="st19" x1="156.9" y1="303.7" x2="156.9" y2="304.6"/>
			<line class="st19" x1="168.7" y1="321.2" x2="169.1" y2="321.6"/>
			<line class="st19" x1="158.6" y1="330.1" x2="158.2" y2="330.8"/>
			<line class="st19" x1="152.2" y1="335.8" x2="153.6" y2="336.4"/>
		</g>
		<path class="st2" d="M122.5,328.5c0,0,16-3.8,21-18.7c2.4-7.2,10-11.3,17.4-10h0c12,2.1,16.8,16.7,8.5,25.5
			c-10.5,11.1-25.5,21.9-43.1,19.6C122.6,344.4,117.8,334.3,122.5,328.5"/>
		<path class="st11" d="M169.4,325.4c6-6.4,5.2-15.7-0.3-21.3c6.9,12.8-4,26.2-18.9,28.6c-15.1,2.5-15.7-9.2-15.8-10.4
			c-4.1,3.2-8.2,4.9-10.4,5.6c-1.6,3.9-1.4,8.4-1.4,8.4s2.1,4.5,3.8,8.5C144,347.2,159,336.4,169.4,325.4z"/>
		<path class="st17" d="M94.2,288.6"/>
		<path class="st17" d="M64.1,333.1c0,0-11.3,0-17.1-9.2c-2.8-4.4-8.5-6-13.3-3.9h0c-7.7,3.3-8.7,13.9-1.7,18.5
			c8.8,5.8,20.6,10.7,32,6.3C66.6,343.8,68.2,336.3,64.1,333.1"/>
		<g>
			<path class="st18" d="M62.6,339c0,0-12.2-3.3-17.6-9c-2.6-2.7-6-6.1-10.6-6.5l0,0c-7.4-0.6-7.2,2.3-1.7,7.8
				c6.7,6.6,19.5,10.4,30.5,11.6c2.3,0.3,3.9-2.7,0.1-5.2"/>
			<line class="st19" x1="35.8" y1="326.9" x2="36.1" y2="328.3"/>
			<line class="st19" x1="38.6" y1="331.3" x2="40.4" y2="330.6"/>
			<line class="st19" x1="43.2" y1="334.1" x2="43.3" y2="334.7"/>
			<line class="st19" x1="47.7" y1="336.3" x2="48.3" y2="335.8"/>
			<line class="st19" x1="44.1" y1="323.7" x2="44.1" y2="324.4"/>
			<line class="st19" x1="46.5" y1="327.6" x2="47.2" y2="328"/>
			<line class="st19" x1="37.9" y1="338.3" x2="37.3" y2="338.5"/>
			<line class="st19" x1="32.5" y1="335" x2="33.9" y2="335.8"/>
			<line class="st19" x1="42.1" y1="340.8" x2="43.2" y2="340.8"/>
			<line class="st19" x1="50.3" y1="343.6" x2="52.5" y2="343.6"/>
		</g>
		<path class="st2" d="M64.1,333.1c0,0-11.3,0-17.1-9.2c-2.8-4.4-8.5-6-13.3-3.9h0c-7.7,3.3-8.7,13.9-1.7,18.5
			c8.8,5.8,20.6,10.7,32,6.3C66.6,343.8,68.2,336.3,64.1,333.1"/>
		<path class="st11" d="M64.1,344.8c2.4-0.9,4-8.5,0-11.7c0,0-4.1,0-8.6-2c-0.1,2.9-1.3,8.3-9.2,8.8c-10.8,0.7-21-9.1-14.7-18.3
			c0.4-0.6,1.9-1.1,2.2-1.6c0,0,0,0,0,0v0c-7.7,3.3-8.7,13.9-1.7,18.5C40.9,344.3,52.7,349.1,64.1,344.8z"/>
		<path class="st20" d="M83.3,258.8c0,0-2.9-5.5,0-7.6c2.9-2.1,4.4,2.2,4.4,2.2s0.3-5.2,3.3-5.2c3,0,3.3,4.2,3.3,4.2s1-4.9,4.5-4.2
			c3.4,0.7,2.8,5.3,2.8,5.3s0.9-3.2,3.6-2.3c2.7,0.9,0,7.6,0,7.6H83.3z"/>
		<path class="st21" d="M83.3,258.8h21.9c0,0,0.6-1.6,1-3.4c-3.8-1.2-7.8-1.8-12-1.8h0c-4.2,0-8.3,0.7-12.1,1.8
			C82.4,257.3,83.3,258.8,83.3,258.8z"/>
		<path class="st17" d="M63.6,368.1h61l9.3-64.5c3.5-24.3-15.3-46.1-39.9-46.1h0c-24.6,0-43.4,21.8-39.9,46.1L63.6,368.1z"/>
		<g>
			<path class="st18" d="M79.6,368.1h29.2l4.5-64.5c1.7-24.3-7.3-46.1-19.1-46.1h0c-11.7,0-20.7,21.8-19.1,46.1L79.6,368.1z"/>
			<line class="st18" x1="73" y1="281" x2="76.4" y2="282.2"/>
			<line class="st19" x1="86.4" y1="278.5" x2="84" y2="279.2"/>
			<line class="st19" x1="89.1" y1="286" x2="91.8" y2="287.9"/>
			<line class="st19" x1="101.1" y1="277" x2="99.6" y2="278.5"/>
			<line class="st19" x1="89" y1="293.9" x2="90.4" y2="294.3"/>
			<line class="st19" x1="85.8" y1="298.4" x2="83.7" y2="299.6"/>
			<line class="st19" x1="104.4" y1="289.6" x2="102.8" y2="290"/>
			<line class="st19" x1="99.3" y1="297" x2="100.4" y2="298.4"/>
			<line class="st19" x1="95" y1="306.2" x2="93" y2="307.3"/>
			<line class="st19" x1="87.5" y1="325.5" x2="88.8" y2="326.4"/>
			<line class="st19" x1="98.6" y1="329.4" x2="96.8" y2="330.8"/>
			<line class="st19" x1="87.5" y1="333.2" x2="88.2" y2="335.1"/>
			<line class="st19" x1="91.5" y1="340.4" x2="91.2" y2="341.2"/>
			<line class="st19" x1="100.4" y1="337.3" x2="101.9" y2="338.1"/>
			<line class="st19" x1="102.6" y1="343.6" x2="102" y2="344.4"/>
			<line class="st19" x1="84" y1="351.7" x2="87.5" y2="354.4"/>
			<line class="st19" x1="91.4" y1="359" x2="90.5" y2="360.1"/>
			<line class="st19" x1="101.1" y1="355.6" x2="102.3" y2="356.3"/>
			<line class="st19" x1="105.1" y1="351.8" x2="103.6" y2="353"/>
			<line class="st19" x1="69.3" y1="342.1" x2="67.6" y2="343.6"/>
			<line class="st19" x1="65" y1="337" x2="67.6" y2="338.7"/>
			<line class="st19" x1="65" y1="330.8" x2="63.8" y2="331.8"/>
			<line class="st19" x1="56.9" y1="302.5" x2="58.9" y2="302.5"/>
			<line class="st19" x1="60" y1="294.9" x2="58.9" y2="295.4"/>
			<line class="st19" x1="62.6" y1="289.8" x2="64.4" y2="289.8"/>
			<line class="st19" x1="69.3" y1="293.4" x2="67.6" y2="295.2"/>
			<line class="st19" x1="65" y1="281.6" x2="66.6" y2="284"/>
			<line class="st19" x1="73" y1="271.6" x2="71.2" y2="272.4"/>
			<line class="st19" x1="74.7" y1="266.7" x2="75" y2="267.6"/>
			<line class="st19" x1="93" y1="265.4" x2="91.4" y2="266.1"/>
			<line class="st19" x1="96.8" y1="267.1" x2="97.7" y2="269"/>
			<line class="st19" x1="119.3" y1="273.4" x2="118.5" y2="274.6"/>
			<line class="st19" x1="124.2" y1="281.6" x2="122" y2="282.8"/>
			<line class="st19" x1="117.1" y1="285.1" x2="118.9" y2="286.9"/>
			<line class="st19" x1="126.7" y1="290.5" x2="125" y2="291.1"/>
			<line class="st19" x1="118.9" y1="294.3" x2="120.6" y2="295.2"/>
			<line class="st19" x1="128.9" y1="297.7" x2="127.6" y2="299.6"/>
			<line class="st19" x1="120.9" y1="340.8" x2="122" y2="342.1"/>
			<line class="st19" x1="117.1" y1="345.7" x2="118" y2="344.4"/>
			<line class="st19" x1="120.9" y1="349.6" x2="119.3" y2="350.9"/>
			<line class="st19" x1="113.4" y1="350.2" x2="115.2" y2="352.4"/>
			<line class="st19" x1="115.3" y1="359.5" x2="114.3" y2="360.8"/>
			<line class="st2" x1="117.6" y1="362.1" x2="117.8" y2="361.4"/>
			<line class="st19" x1="120.9" y1="357.4" x2="122" y2="358"/>
			<line class="st19" x1="100.8" y1="363.7" x2="102.3" y2="363.4"/>
			<line class="st19" x1="92.2" y1="352.4" x2="94.2" y2="353"/>
			<line class="st19" x1="95" y1="362.1" x2="95.6" y2="363.5"/>
			<line class="st19" x1="69" y1="360.2" x2="70.8" y2="361"/>
			<line class="st19" x1="73" y1="353" x2="72.1" y2="354.4"/>
			<line class="st19" x1="67.6" y1="349.4" x2="68.4" y2="350.2"/>
		</g>
		<path class="st2" d="M63.6,368.1h61l9.3-64.5c3.5-24.3-15.3-46.1-39.9-46.1h0c-24.6,0-43.4,21.8-39.9,46.1L63.6,368.1z"/>
		<path class="st11" d="M127,352c-8.8,1.4-18.5,1.2-28.9-2C56,337,60,276.6,60,276.4c-4.9,7.8-7.2,17.3-5.7,27.2l9.3,64.5h61
			L127,352z"/>
		<ellipse class="st11" cx="94.6" cy="397.6" rx="52.5" ry="8.1"/>
		<path class="st22" d="M60,378.5l4.1,16.7c0.4,1.8,2.3,3,4.5,3h50.9c2.2,0,4.1-1.3,4.5-3l4.1-16.7H60z"/>
		<g>
			<defs>
				<path id="SVGID_1_" d="M60,378.5l4.1,16.7c0.4,1.8,2.3,3,4.5,3h50.9c2.2,0,4.1-1.3,4.5-3l4.1-16.7H60z"/>
			</defs>
			<clipPath id="SVGID_2_">
				<use xlink:href="#SVGID_1_"  style="overflow:visible;"/>
			</clipPath>
			<polyline class="st23" points="57.9,384.3 63.4,389.6 68.9,384.3 74.4,389.6 79.9,384.3 85.4,389.6 90.9,384.3 96.5,389.6 
				102,384.3 107.5,389.6 113,384.3 118.5,389.6 124,384.3 129.5,389.6 			"/>
			<polyline class="st23" points="57.9,395 63.4,400.2 68.9,395 74.4,400.2 79.9,395 85.4,400.2 90.9,395 96.5,400.2 102,395 
				107.5,400.2 113,395 118.5,400.2 124,395 129.5,400.2 			"/>
			<polyline class="st24" points="57.9,389.5 63.4,394.7 68.9,389.5 74.4,394.7 79.9,389.5 85.4,394.7 90.9,389.5 96.5,394.7 
				102,389.5 107.5,394.7 113,389.5 118.5,394.7 124,389.5 129.5,394.7 			"/>
		</g>
		<path class="st2" d="M60,378.5l4.1,16.7c0.4,1.8,2.3,3,4.5,3h50.9c2.2,0,4.1-1.3,4.5-3l4.1-16.7H60z"/>
		<polygon class="st25" points="125.9,387.8 128.2,378.5 60,378.5 62.3,387.8 		"/>
		<path class="st22" d="M128.2,383.7H60.1c-1.9,0-3.4-1.5-3.4-3.4v-8.8c0-1.9,1.5-3.4,3.4-3.4h68.2c1.9,0,3.4,1.5,3.4,3.4v8.8
			C131.6,382.1,130.1,383.7,128.2,383.7z"/>
		<path class="st4" d="M128.2,377.6H60.1c-1.9,0-3.4-1.5-3.4-3.4v6c0,1.9,1.5,3.4,3.4,3.4h68.2c1.9,0,3.4-1.5,3.4-3.4v-6
			C131.6,376.1,130.1,377.6,128.2,377.6z"/>
		<line class="st2" x1="58.3" y1="279.5" x2="55.5" y2="277.4"/>
		<line class="st2" x1="53.9" y1="289.3" x2="50.5" y2="288.6"/>
		<line class="st2" x1="55.5" y1="284.8" x2="52.2" y2="283.3"/>
		<line class="st2" x1="120.6" y1="266.7" x2="123.4" y2="264.1"/>
		<line class="st2" x1="123.4" y1="270.1" x2="126.7" y2="267.9"/>
		<line class="st2" x1="126.7" y1="273.1" x2="129.5" y2="271.7"/>
		<line class="st2" x1="134" y1="303.6" x2="137.5" y2="303.7"/>
		<line class="st2" x1="133.3" y1="308.5" x2="137" y2="309.3"/>
		<line class="st2" x1="135.2" y1="345" x2="135.2" y2="348.1"/>
		<line class="st2" x1="139.4" y1="344.4" x2="140" y2="347"/>
		<line class="st2" x1="143.9" y1="343.1" x2="144.7" y2="345.6"/>
		<line class="st2" x1="161.6" y1="332.8" x2="163.1" y2="335.3"/>
		<line class="st2" x1="164.8" y1="329.9" x2="166.8" y2="331.7"/>
		<line class="st2" x1="157.1" y1="287.9" x2="157.6" y2="285.9"/>
		<line class="st2" x1="160.6" y1="289.6" x2="162.4" y2="287.6"/>
		<line class="st2" x1="162.4" y1="291.4" x2="164.1" y2="290.9"/>
		<line class="st2" x1="36.5" y1="319.2" x2="36.6" y2="315.7"/>
		<line class="st2" x1="40.8" y1="319.1" x2="41.2" y2="315.7"/>
		<line class="st2" x1="44.3" y1="321" x2="45.9" y2="318.1"/>
		<line class="st2" x1="32.1" y1="338.5" x2="29.4" y2="341.3"/>
		<line class="st2" x1="35.5" y1="340.6" x2="34" y2="343.6"/>
		<line class="st2" x1="37.9" y1="342.1" x2="37.8" y2="345"/>
		<line class="st2" x1="126.7" y1="354.5" x2="129.4" y2="354.2"/>
		<line class="st2" x1="126.2" y1="357.8" x2="128.9" y2="358.1"/>
		<line class="st2" x1="125.6" y1="361.8" x2="127.8" y2="362.3"/>
		<line class="st2" x1="60.6" y1="351.1" x2="58.3" y2="350.6"/>
		<line class="st2" x1="61.1" y1="354.4" x2="58.9" y2="354.4"/>
		<line class="st2" x1="62" y1="356.9" x2="59.4" y2="358"/>
		<g>
			<g>
				<path class="st17" d="M65,303.7c0,0,3-4.1,8.1-4.1"/>
				<path class="st17" d="M123.4,303.7c0,0-3-4.1-8.1-4.1"/>
			</g>
			<g>
				<g>
					<circle class="st6" cx="71.2" cy="316.9" r="10.7"/>
					<path class="st5" d="M71.4,307.3c-1.3,1.2-2.1,3-2.1,4.9c0,3.8,3,6.8,6.8,6.8c1.8,0,3.5-0.7,4.7-1.9c0-0.1,0-0.2,0-0.2
						C80.8,311.7,76.6,307.4,71.4,307.3z"/>
					
						<ellipse transform="matrix(0.7071 -0.7071 0.7071 0.7071 -204.981 140.8707)" class="st5" cx="67.6" cy="317.9" rx="2.2" ry="2.2"/>
					
						<ellipse transform="matrix(0.7071 -0.7071 0.7071 0.7071 -206.3217 145.057)" class="st5" cx="71.9" cy="321.6" rx="1.5" ry="1.5"/>
				</g>
				<g>
					<circle class="st6" cx="117.1" cy="316.9" r="10.7"/>
					<path class="st5" d="M117.3,307.3c-1.3,1.2-2.1,3-2.1,4.9c0,3.8,3,6.8,6.8,6.8c1.8,0,3.5-0.7,4.7-1.9c0-0.1,0-0.2,0-0.2
						C126.7,311.7,122.5,307.4,117.3,307.3z"/>
					
						<ellipse transform="matrix(0.7071 -0.7071 0.7071 0.7071 -191.5423 173.3135)" class="st5" cx="113.4" cy="317.9" rx="2.2" ry="2.2"/>
					
						<ellipse transform="matrix(0.7071 -0.7071 0.7071 0.7071 -192.8835 177.4993)" class="st5" cx="117.8" cy="321.6" rx="1.5" ry="1.5"/>
				</g>
			</g>
			<polyline class="st17" points="87.5,316 89.5,318.1 91.9,315.7 94.2,317.9 96.3,315.8 98.5,318 100.8,315.7 			"/>
			<ellipse class="st16" cx="70.8" cy="333.2" rx="4.2" ry="2.6"/>
			<ellipse class="st16" cx="117.1" cy="333.2" rx="4.2" ry="2.6"/>
		</g>
	</g>
	<g>
		<ellipse class="st11" cx="407.1" cy="401.8" rx="52.5" ry="8.1"/>
		<g>
			<g>
				<path class="st26" d="M455.6,296.3c-4.8-5.9-10.6-11-17.2-15h-71.2c-6.5,4-12.3,9.1-17.2,15H455.6z"/>
				<path class="st27" d="M456,296.7H349.8c-9.4,11.7-15.1,26.6-15.1,42.8c0,28.3,17.3,52.6,41.8,62.9c3.7,1.6,7.7,2.3,11.8,2.3
					h29.1c4,0,8.1-0.7,11.8-2.3c24.6-10.3,41.8-34.6,41.8-62.9C471.1,323.3,465.4,308.4,456,296.7z"/>
				<ellipse class="st28" cx="403" cy="296.9" rx="53" ry="4.4"/>
				<g>
					<circle class="st29" cx="352.9" cy="317.8" r="5"/>
					<circle class="st5" cx="353.8" cy="316.4" r="2"/>
					<circle class="st29" cx="352.7" cy="332.4" r="3.1"/>
					<circle class="st5" cx="353.3" cy="331.5" r="1.3"/>
					<circle class="st29" cx="421.3" cy="388.8" r="3.1"/>
					<circle class="st5" cx="421.8" cy="387.9" r="1.3"/>
					<circle class="st29" cx="407.9" cy="384.7" r="3.1"/>
					<circle class="st5" cx="408.5" cy="383.8" r="1.3"/>
					<circle class="st5" cx="351.7" cy="319.7" r="0.8"/>
					<circle class="st29" cx="417.5" cy="374.4" r="5"/>
					<circle class="st5" cx="418.4" cy="373" r="2"/>
					<circle class="st5" cx="416.2" cy="376.3" r="0.8"/>
					<circle class="st29" cx="443.4" cy="321.4" r="5"/>
					<circle class="st5" cx="444.3" cy="320" r="2"/>
					<circle class="st5" cx="442.1" cy="323.3" r="0.8"/>
					<circle class="st29" cx="366.4" cy="306.2" r="7.2"/>
					<circle class="st5" cx="367.7" cy="304.2" r="2.9"/>
					<circle class="st5" cx="364.6" cy="309" r="1.1"/>
				</g>
				<path class="st30" d="M370.3,350.1c-34.5-26.7-7.2-65.8-6.9-66.2c-0.1,0.1-0.2,0.1-0.3,0.2l-1.8,1.3c-16.2,12.5-26.6,32-26.6,54
					c0,28.3,17.3,52.6,41.8,62.9c3.7,1.6,7.7,2.3,11.8,2.3h29.1c4,0,8-0.7,11.8-2.3c18.5-7.7,32.8-23.4,38.8-42.7
					C467.6,359.8,404.9,376.8,370.3,350.1z"/>
				<path class="st2" d="M388.3,404.7h29.1c4,0,8.1-0.7,11.8-2.3c24.6-10.3,41.8-34.6,41.8-62.9c0-24.6-13-46.2-32.6-58.2h-71.2
					c-19.5,12-32.6,33.5-32.6,58.2c0,28.3,17.3,52.6,41.8,62.9C380.3,403.9,384.3,404.7,388.3,404.7z"/>
				<path class="st31" d="M440.3,281.3H364c-1.7,0-3.1-1.4-3.1-3.1l0,0c0-1.7,1.4-3.1,3.1-3.1h76.3c1.7,0,3.1,1.4,3.1,3.1l0,0
					C443.4,279.9,442,281.3,440.3,281.3z"/>
				<path class="st30" d="M360.9,278.7c0.2,1.5,1.5,2.6,3,2.6h76.3c1.5,0,2.8-1.1,3-2.6H360.9z"/>
				<path class="st2" d="M440.3,281.3H364c-1.7,0-3.1-1.4-3.1-3.1l0,0c0-1.7,1.4-3.1,3.1-3.1h76.3c1.7,0,3.1,1.4,3.1,3.1l0,0
					C443.4,279.9,442,281.3,440.3,281.3z"/>
				<ellipse class="st32" cx="403.3" cy="399.5" rx="21.9" ry="2.3"/>
				<path class="st33" d="M434.9,287.5c0,0,24.6,17.4,26.6,47.2"/>
				<path class="st33" d="M462.3,346.1c0,0,0.6,19.1-11.8,31"/>
			</g>
			<g>
				<g>
					<path class="st34" d="M362.6,338.7c0,0-12.9,1.6-11.3,9.4c1.5,7.8,13.4,16.9,16,14.7c2.6-2.2,4.6-7.2,4.6-7.2L362.6,338.7z"/>
					<path class="st4" d="M367.3,362.8c2.6-2.2,4.6-7.2,4.6-7.2l-0.4-0.8c-1,0-2.3,0.2-3.8,0.8c-6.9,2.8-16.4-7.5-16.4-7.5
						C352.8,355.9,364.6,365,367.3,362.8z"/>
					<path class="st34" d="M413.2,323.2c0,0,4.1-2.9,6.4-1.3c2.2,1.5,3.5,12,3.5,12L413.2,323.2z"/>
					<path class="st4" d="M413.2,323.2c0,0,4.1-2.9,6.4-1.3c2.2,1.5,3.5,12,3.5,12L413.2,323.2z"/>
					<path class="st34" d="M382.9,361.3c0,0,8,6.5,11.4,6.7c3.4,0.2,4.3-3.3,4.3-3.3s4.8,1.7,6.3,0c1.5-1.7,2.1-6.4,2.1-6.4
						L382.9,361.3z"/>
					<path class="st4" d="M394.3,368c3.4,0.2,4.3-3.3,4.3-3.3c-2.8-0.7-6.3-2.6-6.3-2.6l-5.2-1.3l-4.3,0.5
						C382.9,361.3,390.9,367.8,394.3,368z"/>
					<path class="st35" d="M358.2,340.7c0,0,2.8-27.1,28.9-27.1c26.1,0,42.3,27,46.7,30.6c4.4,3.6,14.1-0.4,19.7,4.6
						c7.9,6.9-4.4,25.5-19.3,22.6c-4.6-0.9-0.9-13.8-8.1-13.8C417.6,357.7,358.9,375,358.2,340.7z"/>
					<path class="st36" d="M418.1,327.2c0,0,11.2,14.3,8,30.6c0,0,2.8,0.7,3.4,1.6c0,0,5.2-4.2,4.3-15L418.1,327.2z"/>
					<path class="st36" d="M407.1,360.6C407.1,360.6,407.1,360.6,407.1,360.6c19-25.9-2.8-41.3-3.2-42.1c-0.2-0.6-0.7-1.1-1.2-1.6
						c-4.7-2-9.9-3.3-15.6-3.3c-26.1,0-28.9,27.1-28.9,27.1C358.7,364.4,386.9,363.5,407.1,360.6z"/>
					<path class="st2" d="M358.2,340.7c0,0,2.8-27.1,28.9-27.1c26.1,0,42.3,27,46.7,30.6c4.4,3.6,14.1-0.4,19.7,4.6
						c7.9,6.9-4.4,25.5-19.3,22.6c-4.6-0.9-0.9-13.8-8.1-13.8C417.6,357.7,358.9,375,358.2,340.7z"/>
					<g>
						<g>
							<g>
								<circle class="st6" cx="369" cy="341.4" r="7.5"/>
								<path class="st5" d="M369.1,334.7c-0.9,0.9-1.5,2.1-1.5,3.4c0,2.6,2.1,4.8,4.8,4.8c1.3,0,2.4-0.5,3.3-1.3c0-0.1,0-0.1,0-0.2
									C375.7,337.7,372.8,334.7,369.1,334.7z"/>
								
									<ellipse transform="matrix(0.7071 -0.7071 0.7071 0.7071 -134.5499 359.2679)" class="st5" cx="366.4" cy="342.1" rx="1.6" ry="1.6"/>
								
									<ellipse transform="matrix(0.7071 -0.7071 0.7071 0.7071 -135.4936 362.2219)" class="st5" cx="369.5" cy="344.7" rx="1.1" ry="1.1"/>
							</g>
						</g>
						<ellipse class="st16" cx="399.9" cy="352.8" rx="2.9" ry="1.8"/>
						<path class="st37" d="M385.9,338.5c-0.5-1.1-1.6-1.9-2.9-1.9c-1.8,0-3.2,1.4-3.2,3.2c0,1.8,1.4,3.2,3.2,3.2
							c-1.8,0-3.2,1.4-3.2,3.2c0,1.8,1.4,3.2,3.2,3.2c1.1,0,2.1-0.6,2.7-1.5"/>
					</g>
					<path class="st34" d="M378.2,321c0,0,2.6-17.3,10.1-18c7.4-0.7,7.2,6.6,7.2,6.6s7.3-3.3,11.6,1.5c4.6,5.2,3,9.9,3,9.9
						S394.8,312.4,378.2,321z"/>
					<path class="st34" d="M453.5,348.9c-1.1-1-2.5-1.6-3.9-2c-1.5,18.6-18.2,19.1-18.2,19.1c0,0,0,0,0,0c0.4,2.8,0.9,5.3,2.8,5.6
						C449.1,374.4,461.4,355.7,453.5,348.9z"/>
					<line class="st2" x1="436.5" y1="359.3" x2="437.8" y2="363.2"/>
					<line class="st2" x1="448.1" y1="351" x2="442.9" y2="350.5"/>
					<line class="st2" x1="441.6" y1="356" x2="444.9" y2="359.2"/>
					<path class="st4" d="M453.5,348.9c1.8,6.7-3,14-8,15.8c-5,1.8-9-5.4-14.1-10.3c-5.1-4.9-15.2-1.6-15.2-1.6s-0.2,5-31.2,2.5
						c-30.9-2.5-19.2-32.2-19.1-32.4c-6.6,7.8-7.7,17.7-7.7,17.7c0.7,34.3,59.4,17,67.9,17c7.2,0,3.5,12.9,8.1,13.8
						C449.1,374.4,461.4,355.7,453.5,348.9z"/>
					<ellipse class="st16" cx="371.6" cy="352.8" rx="2.9" ry="1.8"/>
					<path class="st37" d="M408.7,355.5c0,0,0.8,9.2,4.5,10.2c6.4,1.8,12.9-7.9,13-15.6c0.1-7.6-13-4.7-13-4.7"/>
					<path class="st34" d="M426.2,350.1c0-3.9-3.3-5-6.7-5.2c0,0.2,0,0.3,0.1,0.5c1.5,13.1-9.2,15.9-9.2,15.9
						c-0.1,0.1-0.2,0.2-0.4,0.2c0.7,2,1.7,3.7,3.2,4.1C419.6,367.4,426.1,357.7,426.2,350.1z"/>
					<path class="st4" d="M422.6,345.4c1,3.7-0.7,12.8-5.2,14.7c-1.6,0.7-3.2,0.5-4.5,0c-1.5,0.9-2.6,1.2-2.6,1.2
						c-0.1,0.1-0.2,0.2-0.4,0.2c0.7,2,1.7,3.7,3.2,4.1c6.4,1.8,12.9-7.9,13-15.6C426.2,347.5,424.7,346.1,422.6,345.4z"/>
					<path class="st4" d="M384.7,304.8c-4.7,4.6-6.5,16.2-6.5,16.2c16.6-8.6,31.9,0,31.9,0s0.9-2.6-0.5-6c-4.7-2.1-13-1.5-18.8-2.4
						C383.4,311.4,384.7,304.8,384.7,304.8z"/>
				</g>
				<polyline class="st2" points="407.9,336.8 395,341.4 407.1,346 				"/>
			</g>
		</g>
	</g>
</g>
<g id="DESIGNED_BY_FREEPIK">
</g>
</svg>
