<svg xmlns="http://www.w3.org/2000/svg" viewBox="0 0 378 441"><defs><style>.cls-1{fill:#f26b6d;}.cls-2{fill:#f59093;}.cls-3,.cls-6,.cls-7{fill:none;}.cls-3,.cls-4,.cls-6,.cls-8{stroke:#21374a;}.cls-3,.cls-4,.cls-6,.cls-7,.cls-8{stroke-linecap:round;stroke-linejoin:round;}.cls-3,.cls-7{stroke-width:8px;}.cls-4{fill:#95596b;}.cls-4,.cls-6,.cls-8{stroke-width:1.8px;}.cls-5{fill:#ff89b1;}.cls-7{stroke:#ffb6de;}.cls-8{fill:#21374a;}.cls-9{fill:#fff;}</style></defs><title>bread jam</title><g id="Layer_2" data-name="Layer 2"><g id="Layer_1-2" data-name="Layer 1"><path class="cls-1" d="M34,66.87l23.6-30.76A77.57,77.57,0,0,1,130.15,6.9l40.22,5.75a55,55,0,0,0,22.41-1.42l34.85-9.61c24.77-6.83,50.2,8.58,55,33.31l10.93,56.82A19.17,19.17,0,0,0,310.22,107h0c32.08,3.79,57.61,28.1,62.31,59.35l4.7,31.24a69.69,69.69,0,0,1-18.42,58.26h0c-3.16,3.35-3.15,8.09-5.12,12.24-10.87,22.92-1,46.74,2.62,49.41a16.13,16.13,0,0,1,2.11,2.2c23.23,27.3,16.29,68.42-14.43,87.37h0a169.44,169.44,0,0,1-99.15,24.79l-93.32-5.66a88.75,88.75,0,0,0-45.43,9.37h0C81.59,448,51.46,438.26,39.37,414h0A86.92,86.92,0,0,1,50,319.91l3.3-4a50.57,50.57,0,0,0-.79-65.23L26.85,220.71A55,55,0,0,1,22.14,155l4.93-7.71A18.6,18.6,0,0,0,24,123.57L6.1,107.08C-6.48,95.47,1.67,74.78,19,74.43h0A19.49,19.49,0,0,0,34,66.87Z"/><rect class="cls-2" x="86" y="109" width="21" height="61" rx="10.5" ry="10.5"/><rect class="cls-2" x="176" y="90" width="13" height="55" rx="6.5" ry="6.5"/><rect class="cls-2" x="254" y="187" width="24" height="54" rx="12" ry="12"/><rect class="cls-2" x="134" y="264" width="24" height="54" rx="12" ry="12"/><rect class="cls-2" x="254" y="351" width="24" height="51" rx="12" ry="12"/><rect class="cls-2" x="86" y="374" width="21" height="21" rx="10.5" ry="10.5"/><rect class="cls-2" x="158" y="192" width="31" height="31" rx="12" ry="12"/><rect class="cls-2" x="254" y="45" width="24" height="24" rx="12" ry="12"/><line class="cls-3" x1="69.35" y1="124.54" x2="91.91" y2="97.77"/><line class="cls-3" x1="279.17" y1="89.84" x2="313.5" y2="111.6"/><circle class="cls-4" cx="193.53" cy="176.18" r="21.27" transform="translate(1.69 354.19) rotate(-85.17)"/><path class="cls-5" d="M176.09,188.19a21.13,21.13,0,0,0,36.45-2.55,21.13,21.13,0,0,0-36.45,2.55Z"/><circle class="cls-6" cx="193.53" cy="176.18" r="21.27" transform="translate(1.69 354.19) rotate(-85.17)"/><line class="cls-7" x1="88.11" y1="220.09" x2="80.56" y2="232.05"/><line class="cls-7" x1="102.34" y1="220.21" x2="94.79" y2="232.18"/><line class="cls-7" x1="116.57" y1="220.34" x2="109.02" y2="232.31"/><line class="cls-7" x1="130.8" y1="220.47" x2="123.24" y2="232.44"/><line class="cls-7" x1="267.16" y1="214.19" x2="259.6" y2="226.16"/><line class="cls-7" x1="281.39" y1="214.32" x2="273.83" y2="226.29"/><line class="cls-7" x1="295.61" y1="214.44" x2="288.06" y2="226.41"/><line class="cls-7" x1="309.84" y1="214.57" x2="302.29" y2="226.54"/><circle class="cls-8" cx="107.18" cy="162.64" r="40.9" transform="translate(-4.42 3) rotate(-1.57)"/><path class="cls-9" d="M106.74,126.05a26,26,0,0,0,37,36.53c0-.32,0-.63,0-.95A36.6,36.6,0,0,0,106.74,126.05Z"/><circle class="cls-9" cx="93.19" cy="166.75" r="8.6" transform="translate(-91.97 119.8) rotate(-46.57)"/><circle class="cls-9" cx="110.4" cy="180.53" r="5.84" transform="translate(-96.6 136.59) rotate(-46.57)"/><circle class="cls-8" cx="283.01" cy="157.82" r="40.9" transform="translate(-4.22 7.82) rotate(-1.57)"/><path class="cls-9" d="M282.56,121.23a26,26,0,0,0,37,36.53c0-.32,0-.63,0-.95A36.6,36.6,0,0,0,282.56,121.23Z"/><circle class="cls-9" cx="269.02" cy="161.92" r="8.6" transform="translate(-33.51 245.97) rotate(-46.57)"/><circle class="cls-9" cx="286.22" cy="175.71" r="5.84" transform="translate(-38.15 262.77) rotate(-46.57)"/></g></g></svg>