<svg xmlns="http://www.w3.org/2000/svg" viewBox="0 0 509.02 573"><defs><style>.cls-1{fill:#fee6d1;}.cls-2{fill:#fedabe;}.cls-3{fill:#fbb684;}.cls-4,.cls-7{fill:none;}.cls-4,.cls-5,.cls-7{stroke:#21374a;stroke-linecap:round;stroke-linejoin:round;}.cls-4{stroke-width:10px;}.cls-5{fill:#21374a;stroke-width:1.8px;}.cls-6{fill:#fff;}.cls-7{stroke-width:6px;}.cls-8{fill:#ffb6de;}</style></defs><title>bread</title><g id="Layer_2" data-name="Layer 2"><g id="Layer_1-2" data-name="Layer 1"><path class="cls-1" d="M508.07,206C483.59,88.35,379.37,0,254.51,0S25.42,88.35.95,206A44,44,0,0,0,37,258.46V538.54A34.46,34.46,0,0,0,71.46,573H437.55A34.46,34.46,0,0,0,472,538.54V258.46A44,44,0,0,0,508.07,206Z"/><path class="cls-2" d="M508.07,206C483.59,88.35,379.37,0,254.51,0A258.58,258.58,0,0,0,168.9,14.5a208.66,208.66,0,0,1,57.61,144c0,108.36-82.85,197.63-189.5,209.62V538.54A34.46,34.46,0,0,0,71.46,573H437.55A34.46,34.46,0,0,0,472,538.54V258.46A44,44,0,0,0,508.07,206Z"/><path class="cls-3" d="M508.07,206C483.59,88.35,379.37,0,254.51,0S25.42,88.35.95,206A44,44,0,0,0,37,258.46V538.54A34.46,34.46,0,0,0,71.46,573H437.55A34.46,34.46,0,0,0,472,538.54V258.46A44,44,0,0,0,508.07,206Zm-59.22,55.49V511.71a30.79,30.79,0,0,1-30.79,30.79H91a30.79,30.79,0,0,1-30.79-30.79V261.44a39.3,39.3,0,0,1-32.22-46.91c21.87-105.08,115-184,226.57-184s204.7,78.95,226.57,184A39.3,39.3,0,0,1,448.85,261.44Z"/><path class="cls-4" d="M114.43,183.07s14.6-19.59,38.81-19.59"/><path class="cls-4" d="M395.51,183.07s-14.6-19.59-38.81-19.59"/><ellipse class="cls-5" cx="165.19" cy="232.93" rx="41.76" ry="41.71"/><path class="cls-6" d="M165.76,195.62a26.54,26.54,0,0,0,36.77,38.28c0-.32,0-.64,0-1A37.35,37.35,0,0,0,165.76,195.62Z"/><path class="cls-6" d="M157,230.52a8.78,8.78,0,1,1-12.42,0A8.77,8.77,0,0,1,157,230.52Z"/><path class="cls-6" d="M172.18,247a6,6,0,1,1-8.43,0A6,6,0,0,1,172.18,247Z"/><ellipse class="cls-5" cx="344.75" cy="232.93" rx="41.76" ry="41.71"/><path class="cls-6" d="M345.32,195.62a26.54,26.54,0,0,0,36.77,38.28c0-.32,0-.64,0-1A37.34,37.34,0,0,0,345.32,195.62Z"/><path class="cls-6" d="M336.57,230.52a8.78,8.78,0,1,1-12.42,0A8.77,8.77,0,0,1,336.57,230.52Z"/><path class="cls-6" d="M351.74,247a6,6,0,1,1-8.43,0A6,6,0,0,1,351.74,247Z"/><polyline class="cls-7" points="228.92 308.61 236.89 316.58 246.19 307.29 254.92 316.01 263.37 307.57 272.1 316.29 281.02 307.38"/><ellipse class="cls-8" cx="163.32" cy="296.74" rx="16.26" ry="10.15"/><ellipse class="cls-8" cx="344.75" cy="296.74" rx="16.26" ry="10.15"/><rect class="cls-1" x="104.51" y="362.5" width="106" height="18" rx="9" ry="9"/><rect class="cls-1" x="229.51" y="406.5" width="88" height="17" rx="8.5" ry="8.5"/><rect class="cls-1" x="114.51" y="461.5" width="86" height="16" rx="8" ry="8"/><rect class="cls-1" x="323.51" y="478.5" width="73" height="15" rx="7.5" ry="7.5"/><rect class="cls-1" x="341.51" y="341.5" width="72" height="15" rx="7.5" ry="7.5"/><rect class="cls-1" x="206.51" y="167.5" width="48" height="12" rx="6" ry="6"/><rect class="cls-1" x="299.51" y="99.5" width="68" height="14" rx="7" ry="7"/></g></g></svg>