<svg xmlns="http://www.w3.org/2000/svg" viewBox="0 0 670.76 607.87"><defs><style>.cls-1{isolation:isolate;}.cls-2,.cls-3{fill:#6cffd1;}.cls-11,.cls-2,.cls-5,.cls-7,.cls-8{stroke:#21374a;}.cls-11,.cls-2,.cls-3,.cls-4,.cls-5,.cls-7,.cls-8{stroke-linecap:round;stroke-linejoin:round;stroke-width:1.8px;}.cls-3,.cls-4{stroke:#48e0b4;}.cls-4,.cls-5{fill:none;}.cls-6,.cls-7,.cls-8{fill:#21374a;}.cls-6{opacity:0.15;}.cls-6,.cls-7{mix-blend-mode:darken;}.cls-7{opacity:0.2;}.cls-9{fill:#fff;}.cls-10{fill:#ffb6de;}.cls-11{fill:#ff855c;}</style></defs><title>cactus</title><g class="cls-1"><g id="Layer_2" data-name="Layer 2"><g id="Layer_1-2" data-name="Layer 1"><path class="cls-2" d="M398.9,409.76s84.62-20.12,111.36-98.85c12.9-38,52.91-59.81,92.46-52.89h0c63.52,11.11,89.27,88.33,45,135.19C592.22,452,512.5,509.36,419.31,496.85c-19.78-2.66-45.21-56.12-20.41-87.09"/><path class="cls-3" d="M421.17,432.38s91.19-27.6,118.12-82.72c13-26.6,31.25-49.17,65-60.74h0c54.17-18.59,64.21,8.73,32.07,59C600,404.86,510.84,470.2,425.74,470.2c-18,0-27.47,11.92-4.58-15.36"/><line class="cls-4" x1="509.25" y1="408.63" x2="518.77" y2="411.8"/><line class="cls-4" x1="544.17" y1="377.67" x2="543.11" y2="384.85"/><line class="cls-4" x1="565.33" y1="353.49" x2="570.09" y2="353.49"/><line class="cls-4" x1="605.81" y1="316.68" x2="605.81" y2="324.08"/><line class="cls-4" x1="599.18" y1="348.36" x2="605.81" y2="348.36"/><line class="cls-4" x1="581.2" y1="373.18" x2="581.2" y2="377.92"/><line class="cls-4" x1="562.68" y1="398.59" x2="565.33" y2="399.12"/><line class="cls-4" x1="470.63" y1="434.78" x2="475.39" y2="439.67"/><line class="cls-4" x1="479.1" y1="375.55" x2="484.92" y2="377.67"/><line class="cls-4" x1="514.01" y1="338.88" x2="511.37" y2="353.49"/><line class="cls-4" x1="539.29" y1="305.72" x2="544.12" y2="306.15"/><line class="cls-4" x1="581.2" y1="278.34" x2="581.2" y2="283.06"/><line class="cls-4" x1="643.58" y1="371" x2="645.74" y2="373.18"/><line class="cls-4" x1="590.27" y1="418.2" x2="588.07" y2="421.96"/><line class="cls-4" x1="556.33" y1="448.53" x2="564" y2="451.43"/><path class="cls-5" d="M398.9,409.76s84.62-20.12,111.36-98.85c12.9-38,52.91-59.81,92.46-52.89h0c63.52,11.11,89.27,88.33,45,135.19C592.22,452,512.5,509.36,419.31,496.85c-19.78-2.66-45.21-56.12-20.41-87.09"/><path class="cls-6" d="M647.73,393.22c31.9-33.79,27.41-83.34-1.38-112.54,36.68,67.68-21.41,138.91-100.22,151.7-80,13-83.18-48.47-83.74-54.91a187.32,187.32,0,0,1-55.31,29.85c-8.72,20.82-7.34,44.38-7.34,44.38s11,24.05,20.32,45.24C512.94,509,592.37,451.84,647.73,393.22Z"/><path class="cls-2" d="M336.3,186.28"/><path class="cls-2" d="M292,377.29s-89.67-.17-135.15-72.83C134.88,269.41,89.56,257,51.53,273.27h0C-9.57,299.44-17.1,383,38.41,419.55c69.63,45.85,163.2,84.54,253.73,49.94,19.22-7.35,32-67-.17-92.2"/><path class="cls-3" d="M280.26,423.48s-96.41-26.08-139.1-71c-20.6-21.69-47.32-48.39-83.71-51.58h0C-1,295.74.2,319.35,43.66,362.59,96.52,415.2,198.4,445.24,285,454.7c18.38,2,31.13-21.11.66-41.23"/><line class="cls-4" x1="67.48" y1="328.16" x2="70.44" y2="338.82"/><line class="cls-4" x1="90" y1="362.79" x2="104.23" y2="357.55"/><line class="cls-4" x1="126.16" y1="385.39" x2="126.75" y2="389.74"/><line class="cls-4" x1="161.72" y1="402.17" x2="166.46" y2="398.62"/><line class="cls-4" x1="133.86" y1="302.7" x2="133.86" y2="308.62"/><line class="cls-4" x1="152.24" y1="333.49" x2="158.07" y2="336.45"/><line class="cls-4" x1="84.07" y1="418.47" x2="79.93" y2="419.93"/><line class="cls-4" x1="41.99" y1="392.1" x2="52.75" y2="398.62"/><line class="cls-4" x1="117.86" y1="438.05" x2="126.45" y2="438.05"/><line class="cls-4" x1="182.46" y1="459.95" x2="200.25" y2="459.95"/><path class="cls-5" d="M292,377.29s-89.67-.17-135.15-72.83C134.88,269.41,89.56,257,51.53,273.27h0C-9.57,299.44-17.1,383,38.41,419.55c69.63,45.85,163.2,84.54,253.73,49.94,19.22-7.35,32-67-.17-92.2"/><path class="cls-6" d="M292.14,469.49c19.22-7.35,32-67-.17-92.2,0,0-32.26-.18-67.87-15.89-.78,22.63-10.55,65.74-73.24,69.59C65.52,436.23-15.5,359.39,34.29,286.05c3-4.47,14.77-8.74,17.47-12.87l-.23.09h0C-9.57,299.44-17.1,383,38.41,419.55,108,465.4,201.61,504.09,292.14,469.49Z"/><path class="cls-7" d="M278.43,28.38H394.72A112.43,112.43,0,0,0,400,10.58,213.84,213.84,0,0,0,336.3.9h0a213.84,213.84,0,0,0-64,9.79A70.86,70.86,0,0,0,278.43,28.38Z"/><path class="cls-2" d="M174.49,607H498.11l49.57-341.54c18.67-128.67-81.22-244-211.38-244h0c-130.16,0-230,115.29-211.38,244Z"/><path class="cls-3" d="M259,607h154.7l23.69-341.54c8.93-128.67-38.82-244-101-244h0c-62.22,0-110,115.29-101,244Z"/><line class="cls-3" x1="224.2" y1="145.92" x2="242.19" y2="151.95"/><line class="cls-4" x1="295.3" y1="132.42" x2="282.61" y2="136.41"/><line class="cls-4" x1="309.59" y1="172.08" x2="323.87" y2="182.21"/><line class="cls-4" x1="373.13" y1="124.52" x2="365.13" y2="132.42"/><line class="cls-4" x1="308.79" y1="214.09" x2="316.56" y2="216.46"/><line class="cls-4" x1="292.13" y1="237.72" x2="281.02" y2="244.26"/><line class="cls-4" x1="390.52" y1="191.1" x2="381.8" y2="193.48"/><line class="cls-4" x1="363.54" y1="230.73" x2="369.13" y2="237.72"/><line class="cls-4" x1="340.53" y1="279.36" x2="329.87" y2="285.32"/><line class="cls-4" x1="301.01" y1="381.34" x2="308" y2="386.09"/><line class="cls-4" x1="359.58" y1="401.94" x2="350.06" y2="409.46"/><line class="cls-4" x1="301.01" y1="422.28" x2="304.51" y2="432.06"/><line class="cls-4" x1="322.28" y1="460.29" x2="320.69" y2="464.56"/><line class="cls-4" x1="369.13" y1="443.95" x2="377.03" y2="447.92"/><line class="cls-4" x1="381" y1="477.08" x2="377.83" y2="481.27"/><line class="cls-4" x1="282.61" y1="520.05" x2="301.01" y2="534.3"/><line class="cls-4" x1="321.49" y1="558.89" x2="316.73" y2="564.44"/><line class="cls-4" x1="373.13" y1="540.66" x2="379.41" y2="544.62"/><line class="cls-4" x1="394.1" y1="520.52" x2="386.16" y2="527.17"/><line class="cls-4" x1="204.4" y1="469.23" x2="195.19" y2="477.08"/><line class="cls-4" x1="181.43" y1="442.37" x2="195.19" y2="451.09"/><line class="cls-4" x1="181.43" y1="409.46" x2="175.48" y2="414.63"/><line class="cls-4" x1="138.56" y1="259.64" x2="149.37" y2="259.64"/><line class="cls-4" x1="155.29" y1="219.64" x2="149.37" y2="222.01"/><line class="cls-4" x1="169.13" y1="192.29" x2="178.46" y2="192.29"/><line class="cls-4" x1="204.4" y1="211.71" x2="195.19" y2="220.82"/><line class="cls-4" x1="181.43" y1="148.93" x2="190.13" y2="161.77"/><line class="cls-4" x1="224.2" y1="95.98" x2="214.69" y2="100.34"/><line class="cls-4" x1="233.19" y1="69.83" x2="234.87" y2="74.58"/><line class="cls-4" x1="329.87" y1="63.09" x2="321.49" y2="66.66"/><line class="cls-4" x1="350.06" y1="72.2" x2="354.82" y2="82.04"/><line class="cls-4" x1="469.79" y1="105.49" x2="465.11" y2="111.84"/><line class="cls-4" x1="495.26" y1="148.93" x2="483.69" y2="155.35"/><line class="cls-4" x1="457.91" y1="167.32" x2="467.45" y2="176.84"/><line class="cls-4" x1="508.55" y1="195.86" x2="499.86" y2="199.5"/><line class="cls-4" x1="467.45" y1="216.27" x2="476.21" y2="220.82"/><line class="cls-4" x1="520.66" y1="234.23" x2="513.33" y2="244.26"/><line class="cls-4" x1="478.09" y1="462.43" x2="483.69" y2="469.23"/><line class="cls-4" x1="457.91" y1="488.25" x2="462.68" y2="481.27"/><line class="cls-4" x1="478.09" y1="508.95" x2="469.79" y2="515.69"/><line class="cls-4" x1="438.42" y1="512.32" x2="447.63" y2="523.85"/><line class="cls-4" x1="448.41" y1="561.66" x2="443.02" y2="568.4"/><line class="cls-5" x1="460.3" y1="575.06" x2="461.67" y2="571.57"/><line class="cls-4" x1="478.09" y1="550.53" x2="483.69" y2="553.37"/><line class="cls-4" x1="371.59" y1="583.46" x2="379.41" y2="581.87"/><line class="cls-4" x1="325.68" y1="523.85" x2="336.3" y2="527.17"/><line class="cls-4" x1="340.53" y1="575.06" x2="343.71" y2="582.67"/><line class="cls-4" x1="202.81" y1="565.03" x2="212.16" y2="569.19"/><line class="cls-4" x1="224.2" y1="527.17" x2="219.44" y2="534.3"/><line class="cls-4" x1="195.19" y1="508.16" x2="199.8" y2="512.32"/><path class="cls-5" d="M174.49,607H498.11l49.57-341.54c18.67-128.67-81.22-244-211.38-244h0c-130.16,0-230,115.29-211.38,244Z"/><path class="cls-6" d="M510.44,522A332.79,332.79,0,0,1,357.2,511.33c-223.44-68.86-202-388.8-201.91-389.76a211.82,211.82,0,0,0-30.36,143.86L174.49,607H498.11Z"/><line class="cls-5" x1="145.98" y1="137.94" x2="131.14" y2="126.9"/><line class="cls-5" x1="122.67" y1="189.52" x2="104.86" y2="186.28"/><line class="cls-5" x1="131.14" y1="165.74" x2="113.77" y2="157.81"/><line class="cls-5" x1="476.21" y1="69.83" x2="491.17" y2="56.35"/><line class="cls-5" x1="491.17" y1="87.91" x2="508.55" y2="76.17"/><line class="cls-5" x1="508.55" y1="103.91" x2="523.83" y2="96.78"/><line class="cls-5" x1="547.68" y1="265.44" x2="565.89" y2="265.84"/><line class="cls-5" x1="543.89" y1="291.57" x2="563.51" y2="295.73"/><line class="cls-5" x1="553.7" y1="484.94" x2="553.7" y2="501.02"/><line class="cls-5" x1="576.04" y1="481.27" x2="579.52" y2="495.24"/><line class="cls-5" x1="73.29" y1="267.12" x2="74" y2="239.58"/><line class="cls-5" x1="107.19" y1="266.19" x2="110.75" y2="239.58"/><line class="cls-5" x1="134.83" y1="281.41" x2="147.49" y2="258.37"/><line class="cls-5" x1="65.52" y1="436.23" x2="53.85" y2="460.19"/><line class="cls-5" x1="84.67" y1="448.21" x2="83.48" y2="471.68"/><line class="cls-5" x1="508.55" y1="535.07" x2="523.04" y2="533.52"/><line class="cls-5" x1="506" y1="552.61" x2="520.66" y2="554.13"/><line class="cls-5" x1="502.93" y1="573.79" x2="514.48" y2="576.33"/><line class="cls-5" x1="158.13" y1="516.88" x2="146.12" y2="514.5"/><line class="cls-5" x1="161.2" y1="534.3" x2="149.37" y2="534.3"/><line class="cls-5" x1="165.88" y1="547.69" x2="152.12" y2="553.37"/><path class="cls-2" d="M181.43,265.84s16.09-21.59,42.76-21.59"/><path class="cls-2" d="M491.17,265.84s-16.09-21.59-42.76-21.59"/><ellipse class="cls-8" cx="214.69" cy="335.86" rx="56.56" ry="56.5"/><path class="cls-9" d="M215.46,285.32a35.95,35.95,0,0,0,49.8,51.85c0-.44.07-.86.07-1.3A50.59,50.59,0,0,0,215.46,285.32Z"/><path class="cls-9" d="M203.61,332.59a11.89,11.89,0,1,1-16.82,0A11.87,11.87,0,0,1,203.61,332.59Z"/><path class="cls-9" d="M224.16,355a8.07,8.07,0,1,1-11.42,0A8.06,8.06,0,0,1,224.16,355Z"/><ellipse class="cls-8" cx="457.91" cy="335.86" rx="56.56" ry="56.5"/><path class="cls-9" d="M458.68,285.32a35.95,35.95,0,0,0,49.8,51.85c0-.44.07-.86.07-1.3A50.59,50.59,0,0,0,458.68,285.32Z"/><path class="cls-9" d="M446.83,332.59a11.89,11.89,0,1,1-16.82,0A11.87,11.87,0,0,1,446.83,332.59Z"/><path class="cls-9" d="M467.38,355A8.07,8.07,0,1,1,456,355,8.06,8.06,0,0,1,467.38,355Z"/><polyline class="cls-2" points="301.01 331.36 311.81 342.15 324.41 329.57 336.24 341.38 347.68 329.95 359.5 341.76 371.59 329.69"/><ellipse class="cls-10" cx="212.16" cy="422.28" rx="22.03" ry="13.75"/><ellipse class="cls-10" cx="457.91" cy="422.28" rx="22.03" ry="13.75"/><path class="cls-11" d="M278.43,90.87s-15.51-29.1,0-40.2,23.45,11.89,23.45,11.89,1.59-27.74,17.46-27.74S336.79,57,336.79,57s5.55-26.16,23.81-22.19,15.08,27.82,15.08,27.82,4.76-16.72,19-12,0,40.2,0,40.2Z"/></g></g></g></svg>