<svg xmlns="http://www.w3.org/2000/svg" viewBox="0 0 296 120"><defs><style>.cls-1{fill:#9ae261;}.cls-2{fill:#bef97a;}.cls-3{fill:#ffca3e;}.cls-4,.cls-5,.cls-9{fill:#fff;}.cls-4{stroke:#fff;stroke-miterlimit:10;stroke-width:2px;}.cls-6{fill:#fed767;}.cls-7{fill:#556080;}.cls-8{fill:#414d6b;}.cls-9{opacity:0.7;}</style></defs><title>hint button</title><g id="Layer_2" data-name="Layer 2"><g id="Layer_1-2" data-name="Layer 1"><rect class="cls-1" width="296" height="120" rx="60" ry="60"/><path class="cls-2" d="M118,0H60A60.18,60.18,0,0,0,0,60H0a60.18,60.18,0,0,0,60,60h58Z"/><path class="cls-3" d="M63.5,32.74a22.64,22.64,0,0,0-7.08,44.14V90.75h2.83V95h8.49V90.75h2.83V76.88A22.64,22.64,0,0,0,63.5,32.74Z"/><path class="cls-4" d="M63.5,18.18a1.5,1.5,0,0,0-1.5,1.5v6a1.5,1.5,0,0,0,3,0v-6A1.5,1.5,0,0,0,63.5,18.18Z"/><path class="cls-4" d="M99.5,54.18h-6a1.5,1.5,0,0,0,0,3h6a1.5,1.5,0,0,0,0-3Z"/><path class="cls-4" d="M33.5,54.18h-6a1.5,1.5,0,0,0,0,3h6a1.5,1.5,0,0,0,0-3Z"/><path class="cls-4" d="M87.9,29.16,83.65,33.4a1.5,1.5,0,1,0,2.12,2.12L90,31.28a1.5,1.5,0,1,0-2.12-2.12Z"/><path class="cls-4" d="M41.22,75.83,37,80.07a1.5,1.5,0,1,0,2.12,2.12L43.35,78a1.5,1.5,0,0,0-2.12-2.12Z"/><path class="cls-4" d="M85.77,75.83A1.5,1.5,0,0,0,83.65,78l4.24,4.24A1.5,1.5,0,0,0,90,80.07Z"/><path class="cls-4" d="M39.1,29.16A1.5,1.5,0,0,0,37,31.28l4.24,4.24a1.5,1.5,0,1,0,2.12-2.12Z"/><path class="cls-5" d="M160.06,45V57.1h12.82V45h5.54V75.28h-5.54V61.92H160.06V75.28h-5.53V45Z"/><path class="cls-5" d="M190.3,45V75.28h-5.53V45Z"/><path class="cls-5" d="M196.65,75.28V45h6.3l7.83,13A83.3,83.3,0,0,1,216,68.13H216c-.36-4-.5-8-.5-12.6V45h5.13V75.28H215L207,62a105.6,105.6,0,0,1-5.45-10.48l-.13,0c.22,3.91.27,7.92.27,12.91V75.28Z"/><path class="cls-5" d="M232.87,49.59h-8.64V45h22.9v4.63h-8.73V75.28h-5.53Z"/><path class="cls-6" d="M63,95V32.75a22.63,22.63,0,0,0-6.58,44.13V90.75h2.83V95Z"/><polygon class="cls-7" points="56.42 83.85 56.42 93.75 59.26 93.75 59.26 98 67.75 98 67.75 93.75 70.58 93.75 70.58 83.85 56.42 83.85"/><polygon class="cls-8" points="63 83.85 63 98 67.75 98 67.75 93.75 70.58 93.75 70.58 83.85 63 83.85"/><path class="cls-9" d="M45.93,55.79a1.41,1.41,0,0,1-1.42-1.42,17,17,0,0,1,17-17,1.42,1.42,0,1,1,0,2.83A14.17,14.17,0,0,0,47.35,54.38,1.41,1.41,0,0,1,45.93,55.79Z"/></g></g></svg>