<svg xmlns="http://www.w3.org/2000/svg" viewBox="0 0 932.04 937.99"><defs><style>.cls-1{fill:#ccc;}.cls-2{fill:#fff;}.cls-3{fill:#e6e6e6;}.cls-4{fill:#ef5595;opacity:0.5;}</style></defs><title>Asset 3</title><g id="Layer_2" data-name="Layer 2"><g id="Layer_1-2" data-name="Layer 1"><rect class="cls-1" x="17.69" y="44.6" width="896.65" height="875.25" transform="translate(-19.52 19.66) rotate(-2.37)"/><rect class="cls-2" x="19.89" y="47.33" width="884" height="861" transform="translate(-19.34 19.49) rotate(-2.37)"/><rect class="cls-3" x="62.43" y="142.12" width="770.63" height="3.99" transform="translate(-5.59 18.68) rotate(-2.38)"/><rect class="cls-3" x="66.33" y="236.19" width="770.63" height="3.99" transform="translate(-9.48 18.92) rotate(-2.38)"/><rect class="cls-3" x="70.24" y="330.26" width="770.63" height="3.99" transform="translate(-13.38 19.16) rotate(-2.38)"/><rect class="cls-3" x="74.14" y="424.34" width="770.63" height="3.99" transform="translate(-17.27 19.41) rotate(-2.38)"/><rect class="cls-3" x="78.04" y="518.41" width="770.63" height="3.99" transform="translate(-21.17 19.65) rotate(-2.38)"/><rect class="cls-3" x="81.94" y="612.48" width="770.63" height="3.99" transform="translate(-25.06 19.89) rotate(-2.38)"/><rect class="cls-3" x="86.94" y="712.48" width="770.63" height="3.99" transform="translate(-29.2 20.19) rotate(-2.38)"/><rect class="cls-3" x="92.94" y="813.48" width="770.63" height="3.99" transform="translate(-33.38 20.52) rotate(-2.38)"/><path class="cls-4" d="M603.16,96l-298.5.5c-1.34,0-2.29-1.62-1.88-3.21l2.11-8.11a7.31,7.31,0,0,0-.24-4.43l-1.9-4.9a6.92,6.92,0,0,1-.17-4.41l4.74-16a8,8,0,0,0-.09-4.8l-4.69-13.87a7.51,7.51,0,0,1-.15-4.23l3.09-12a7,7,0,0,0,0-3.25l-3-13.63C302.12,2,303.07.5,304.37.5l298-.5c1.54,0,2.49,2.09,1.69,3.73l-5.93,12.14a2.94,2.94,0,0,0,.16,2.83l7,10.56a2.93,2.93,0,0,1,.34,2.33l-3.81,14.11a6.75,6.75,0,0,0,.07,3.72l3.56,11.51a5.9,5.9,0,0,1-.08,3.7l-4.68,13a3,3,0,0,0,0,1.93L605,92.62C605.51,94.23,604.56,96,603.16,96Z"/></g></g></svg>