<svg xmlns="http://www.w3.org/2000/svg" viewBox="0 0 524.02 588"><defs><style>.cls-1{fill:none;stroke:#000;stroke-linecap:round;stroke-miterlimit:10;stroke-width:15px;stroke-dasharray:20 25;}</style></defs><title>outline bread</title><g id="Layer_2" data-name="Layer 2"><g id="Layer_1-2" data-name="Layer 1"><path class="cls-1" d="M515.57,213.45C491.09,95.85,386.87,7.5,262,7.5q-2.87,0-5.72.06l-2.16.07c-1.17,0-2.34.07-3.51.12l-2.74.15L245,8.05l-3.06.23-2.52.2c-1.11.1-2.21.21-3.32.32L233.87,9c-1.18.13-2.36.27-3.53.41l-2,.24c-1.24.16-2.48.34-3.72.52l-1.71.25c-1.31.2-2.61.41-3.91.63l-1.47.25c-1.36.24-2.72.49-4.08.74l-1.26.24q-2.13.41-4.24.86l-1,.22q-2.2.48-4.39,1l-.83.2q-2.27.54-4.53,1.12l-.64.17q-2.34.61-4.66,1.26l-.45.13q-2.4.68-4.78,1.4l-.29.09q-2.45.75-4.88,1.54l-.13,0A259.43,259.43,0,0,0,8.45,213.45,44,44,0,0,0,44.51,266V546A34.46,34.46,0,0,0,68.72,579q.81.25,1.64.46A34.52,34.52,0,0,0,79,580.5H445.05A34.46,34.46,0,0,0,479.51,546V266A44,44,0,0,0,515.57,213.45Z"/></g></g></svg>