<svg xmlns="http://www.w3.org/2000/svg" viewBox="0 0 393 456"><defs><style>.cls-1{fill:none;stroke:#000;stroke-linecap:round;stroke-miterlimit:10;stroke-width:15px;stroke-dasharray:20 25;}</style></defs><title>outline bread jam_1</title><g id="Layer_2" data-name="Layer 2"><g id="Layer_1-2" data-name="Layer 1"><path class="cls-1" d="M41.55,74.37l23.6-30.76A77.57,77.57,0,0,1,137.65,14.4l40.22,5.75a55,55,0,0,0,22.41-1.42l34.85-9.61c24.77-6.83,50.2,8.58,55,33.31L301,99.26a19.17,19.17,0,0,0,16.69,15.28h0c32.08,3.79,57.61,28.1,62.31,59.35l4.7,31.24a69.69,69.69,0,0,1-18.42,58.26h0c-3.16,3.35-3.15,8.09-5.12,12.24-10.87,22.92-1,46.74,2.62,49.41a16.13,16.13,0,0,1,2.11,2.2c23.23,27.3,16.29,68.42-14.43,87.37h0a169.44,169.44,0,0,1-99.15,24.79L159,433.74a88.75,88.75,0,0,0-45.43,9.37h0c-24.49,12.4-54.62,2.65-66.72-21.58h0a86.92,86.92,0,0,1,10.68-94.12l3.3-4a50.57,50.57,0,0,0-.79-65.23L34.35,228.21a55,55,0,0,1-4.7-65.67l4.93-7.71a18.6,18.6,0,0,0-3.12-23.77L13.6,114.58C1,103,9.17,82.28,26.47,81.93h0A19.49,19.49,0,0,0,41.55,74.37Z"/></g></g></svg>