<svg xmlns="http://www.w3.org/2000/svg" xmlns:xlink="http://www.w3.org/1999/xlink" viewBox="0 0 689.3 550.35"><defs><style>.cls-1{fill:#e6e6e6;}.cls-2{fill:#ace0f3;}.cls-3{fill:#d3eef4;}.cls-4,.cls-5{fill:none;stroke-linecap:round;stroke-linejoin:round;}.cls-4{stroke:#ededed;stroke-width:1.03px;}.cls-5{stroke:#898b8e;stroke-width:1.78px;}.cls-6{fill:#363538;}.cls-7{fill:#3bbeef;}.cls-8{fill:#71c9f2;}.cls-9{fill:#18a5d8;}.cls-10{fill:#0e93d2;}.cls-11{opacity:0.45;fill:url(#Degradado_sin_nombre_7);}</style><linearGradient id="Degradado_sin_nombre_7" x1="-183.64" y1="694.8" x2="154.27" y2="1032.71" gradientTransform="translate(-490.78 255.53) rotate(-90)" gradientUnits="userSpaceOnUse"><stop offset="0.05" stop-color="#fff"/><stop offset="0.95" stop-color="#fff" stop-opacity="0.7"/></linearGradient></defs><title>picture</title><g id="Layer_2" data-name="Layer 2"><g id="Layer_1-2" data-name="Layer 1"><rect class="cls-1" x="0.3" y="61.35" width="689" height="489"/><rect class="cls-2" x="0.3" y="60.35" width="681" height="483"/><rect class="cls-3" x="0.3" y="62.35" width="681" height="344"/><line class="cls-4" x1="544.31" y1="264.23" x2="496.94" y2="216.86"/><line class="cls-4" x1="285.72" y1="435.16" x2="162.24" y2="311.68"/><line class="cls-4" x1="386.83" y1="386.84" x2="162.24" y2="162.25"/><path class="cls-5" d="M411.47,69.93,346.25,4.71a13.05,13.05,0,0,0-18.46,0L262.58,69.93"/><circle class="cls-6" cx="337.02" cy="17.14" r="16.25"/><polygon class="cls-7" points="17.4 526.95 17.4 77.94 17.4 77.94 0 60.54 0 544.35 17.4 526.95 17.4 526.95"/><polygon class="cls-8" points="17.4 77.94 664.1 77.94 681.5 60.54 0 60.54 17.4 77.94"/><polygon class="cls-8" points="17.4 526.95 0 544.35 681.5 544.35 664.1 526.95 17.4 526.95"/><polygon class="cls-7" points="664.1 77.94 664.1 526.95 664.1 526.95 681.5 544.35 681.5 60.54 664.1 77.94 664.1 77.94"/><polygon class="cls-9" points="620.6 483.45 664.1 526.95 664.1 526.95 664.1 77.94 664.1 77.94 620.6 118.23 620.6 483.45"/><polygon class="cls-7" points="58.03 483.45 17.4 526.95 664.1 526.95 620.6 483.45 58.03 483.45"/><polygon class="cls-7" points="620.6 118.23 664.1 77.94 17.4 77.94 58.03 118.23 620.6 118.23"/><polygon class="cls-9" points="17.4 526.95 17.4 526.95 58.03 483.45 58.03 118.23 17.4 77.94 17.4 77.94 17.4 526.95"/><polygon class="cls-7" points="607.55 470.4 620.6 483.45 620.6 118.23 607.55 134.49 607.55 470.4"/><polygon class="cls-9" points="607.55 470.4 73.95 470.4 58.03 483.45 620.6 483.45 607.55 470.4"/><polygon class="cls-10" points="73.95 134.49 58.03 118.23 58.03 483.45 73.95 470.4 73.95 134.49"/><polygon class="cls-9" points="607.55 134.49 620.6 118.23 58.03 118.23 73.95 134.49 607.55 134.49"/><rect class="cls-11" x="73.95" y="134.49" width="533.6" height="335.91"/></g></g></svg>