<svg xmlns="http://www.w3.org/2000/svg" xmlns:xlink="http://www.w3.org/1999/xlink" viewBox="0 0 409.25 320.24"><defs><style>.cls-1,.cls-5,.cls-6,.cls-7{fill:none;}.cls-2{isolation:isolate;}.cls-3{fill:#6eb7ff;}.cls-3,.cls-7{stroke:#21374a;}.cls-3,.cls-5,.cls-6,.cls-7{stroke-linecap:round;stroke-linejoin:round;stroke-width:1.8px;}.cls-4{clip-path:url(#clip-path);}.cls-5{stroke:#6effff;}.cls-6{stroke:#fff;}.cls-8,.cls-9{fill:#21374a;mix-blend-mode:darken;}.cls-8{opacity:0.47;}.cls-9{opacity:0.25;}</style><clipPath id="clip-path"><path class="cls-1" d="M19.38,56.81l22.39,201.9c2.35,21.18,12.66,36.43,24.63,36.43H342.84c12,0,22.29-15.25,24.63-36.43l22.39-201.9Z"/></clipPath></defs><title>cactus pot</title><g class="cls-2"><g id="Layer_2" data-name="Layer 2"><g id="Layer_1-2" data-name="Layer 1"><path class="cls-3" d="M19.38,57.24l22.39,203.7c2.35,21.37,12.66,36.76,24.63,36.76H342.84c12,0,22.29-15.39,24.63-36.76l22.39-203.7Z"/><g class="cls-4"><polyline class="cls-5" points="7.64 127.26 37.57 190.81 67.49 127.26 97.44 190.81 127.36 127.26 157.31 190.81 187.26 127.26 217.22 190.81 247.18 127.26 277.12 190.81 307.08 127.26 337.05 190.81 367.05 127.26 397.05 190.81"/><polyline class="cls-5" points="7.64 255.79 37.57 319.35 67.49 255.79 97.44 319.35 127.36 255.79 157.31 319.35 187.26 255.79 217.22 319.35 247.18 255.79 277.12 319.35 307.08 255.79 337.05 319.35 367.05 255.79 397.05 319.35"/><polyline class="cls-6" points="7.64 189.49 37.57 253.05 67.49 189.49 97.44 253.05 127.36 189.49 157.31 253.05 187.26 189.49 217.22 253.05 247.18 189.49 277.12 253.05 307.08 189.49 337.05 253.05 367.05 189.49 397.05 253.05"/></g><path class="cls-7" d="M19.38,57.24l22.39,203.7c2.35,21.37,12.66,36.76,24.63,36.76H342.84c12,0,22.29-15.39,24.63-36.76l22.39-203.7Z"/><polygon class="cls-8" points="383.77 107.61 396.67 57.24 11.69 57.24 24.59 107.61 383.77 107.61"/><rect class="cls-3" x="0.9" y="0.9" width="407.45" height="84.51" rx="12.74" ry="12.74"/><path class="cls-9" d="M389.83,52.69H19.42A18.56,18.56,0,0,1,.9,34.19V66.91a18.56,18.56,0,0,0,18.52,18.5H389.83a18.56,18.56,0,0,0,18.52-18.5V34.19A18.56,18.56,0,0,1,389.83,52.69Z"/></g></g></g></svg>